<?xml version="1.0" encoding="UTF-8" standalone="no"?>
<svg
   xmlns:dc="http://purl.org/dc/elements/1.1/"
   xmlns:cc="http://creativecommons.org/ns#"
   xmlns:rdf="http://www.w3.org/1999/02/22-rdf-syntax-ns#"
   xmlns:svg="http://www.w3.org/2000/svg"
   xmlns="http://www.w3.org/2000/svg"
   xmlns:sodipodi="http://sodipodi.sourceforge.net/DTD/sodipodi-0.dtd"
   xmlns:inkscape="http://www.inkscape.org/namespaces/inkscape"
   sodipodi:docname="MonkeyPaw.svg"
   inkscape:version="1.0 (4035a4fb49, 2020-05-01)"
   id="svg858"
   version="1.1"
   viewBox="0 0 145.59558 194.73143"
   height="194.73143mm"
   width="145.59558mm">
  <defs
     id="defs852" />
  <sodipodi:namedview
     inkscape:window-maximized="0"
     inkscape:window-y="0"
     inkscape:window-x="78"
     inkscape:window-height="1040"
     inkscape:window-width="1317"
     inkscape:snap-global="false"
     inkscape:showpageshadow="false"
     fit-margin-bottom="20"
     fit-margin-right="20"
     fit-margin-left="20"
     fit-margin-top="20"
     showgrid="false"
     inkscape:document-rotation="0"
     inkscape:current-layer="layer3"
     inkscape:document-units="mm"
     inkscape:cy="423.08568"
     inkscape:cx="246.1098"
     inkscape:zoom="0.7"
     inkscape:pageshadow="2"
     inkscape:pageopacity="0.0"
     borderopacity="1.0"
     bordercolor="#666666"
     pagecolor="#ffffff"
     id="base" />
  <metadata
     id="metadata855">
    <rdf:RDF>
      <cc:Work
         rdf:about="">
        <dc:format>image/svg+xml</dc:format>
        <dc:type
           rdf:resource="http://purl.org/dc/dcmitype/StillImage" />
        <dc:title></dc:title>
      </cc:Work>
    </rdf:RDF>
  </metadata>
  <g
     transform="translate(-11.566388,3.1528)"
     style="display:inline"
     inkscape:label="1"
     id="layer3"
     inkscape:groupmode="layer">
    <path
       id="path1448"
       d="m 99.290628,152.81135 c 1.804072,0.0668 3.140412,-0.86863 3.407692,-1.5368 0.26726,-0.66817 0.4009,-3.20723 -1.80407,-5.67948 -2.204977,-2.47224 -3.006787,-5.27857 -4.075865,-5.87993 -1.069078,-0.60135 -5.011303,-5.54584 -5.87993,-6.08038 -0.868625,-0.53454 -4.677217,-4.81085 -5.345391,-5.81311 -0.668173,-1.00226 -3.608138,-5.61266 -4.34313,-6.1472 -0.734991,-0.53454 -1.202711,8.75308 -1.202711,8.75308 l 8.018084,13.22984 9.354434,8.21854 z"
       style="fill:#48373e;stroke:#000000;stroke-width:0.264583px;stroke-linecap:butt;stroke-linejoin:miter;stroke-opacity:1" />
    <path
       id="path1450"
       d="m 64.539433,158.46652 c 0.944941,0 3.260045,-0.28349 3.732514,-0.85045 0.472472,-0.56696 1.653646,-1.41741 1.6064,-4.39397 -0.04725,-2.97657 -0.377976,-5.71689 -1.6064,-7.65402 -1.22842,-1.93713 -3.9215,-5.33892 -4.630208,-6.89807 -0.708705,-1.55915 -1.464656,-4.01599 -2.126115,-4.53571 -0.661458,-0.51972 -3.685267,-6.3311 -3.77976,-7.9375 -0.0945,-1.6064 -5.291667,1.22842 -5.291667,1.22842 l 4.441219,18.14286 4.819197,11.67001 z"
       style="fill:#48373e;stroke:#000000;stroke-width:0.264583px;stroke-linecap:butt;stroke-linejoin:miter;stroke-opacity:1" />
    <path
       id="path1452"
       d="m 102.43155,112.80227 c 1.32291,-0.0472 2.92931,-0.37798 3.44903,-1.2048 0.51972,-0.82682 1.2048,-1.77176 1.27567,-2.57496 0.0709,-0.8032 -0.94494,-3.94513 -0.94494,-3.94513 l -5.57515,-0.87407 -1.464658,3.94513 z"
       style="fill:#48373e;stroke:#000000;stroke-width:0.264583px;stroke-linecap:butt;stroke-linejoin:miter;stroke-opacity:1" />
    <path
       id="path1454"
       d="m 111.25094,139.44787 c 1.33635,-0.26726 3.34087,-0.20045 4.07586,-1.60361 0.73499,-1.40317 1.60362,-2.13816 1.33635,-3.54133 -0.26727,-1.40316 -1.06908,-2.3386 -2.20498,-2.53905 -1.13589,-0.20046 -2.93996,-1.40317 -3.40768,-2.60588 -0.46772,-1.20272 -3.34087,-6.28084 -4.14268,-7.08264 -0.80181,-0.80181 -3.27405,-2.93997 -4.40995,-4.00905 -1.13589,-1.06907 -8.418986,-7.01582 -9.488064,-7.684 -1.069078,-0.66817 -4.610402,-2.67269 -4.610402,-2.67269 l 0.601358,5.74629 6.347651,7.41673 7.483547,7.81764 1.60362,6.61492 5.61266,4.00904 z"
       style="fill:#48373e;stroke:#000000;stroke-width:0.264583px;stroke-linecap:butt;stroke-linejoin:miter;stroke-opacity:1" />
    <path
       id="path1456"
       d="m 88.29917,92.775933 c 0,0 -4.042452,-0.902033 -4.944486,2.071341 -0.902036,2.973371 -4.276315,-4.409948 -4.276315,-4.409948 l -1.971111,-9.087165 6.982418,-1.436574 3.908816,8.753078 z"
       style="fill:#48373e;stroke:#000000;stroke-width:0.264583px;stroke-linecap:butt;stroke-linejoin:miter;stroke-opacity:1" />
    <path
       id="path1458"
       d="m 65.767857,96.242186 c 0,0 1.842632,-2.83482 4.441219,-1.559152 2.598586,1.27567 1.464659,-0.09449 1.464659,-0.09449 L 68.886159,83.532742 65.295385,80.934156 62.082589,85.61161 Z"
       style="fill:#48373e;stroke:#000000;stroke-width:0.264583px;stroke-linecap:butt;stroke-linejoin:miter;stroke-opacity:1" />
    <path
       id="path1460"
       d="m 46.585565,102.99851 c 0,0 3.874257,-3.827008 5.24442,-1.84263 1.370164,1.98437 -0.283482,-5.338916 -0.283482,-5.338916 l -4.157739,-4.346726 -3.354539,1.370163 z"
       style="fill:#48373e;stroke:#000000;stroke-width:0.264583px;stroke-linecap:butt;stroke-linejoin:miter;stroke-opacity:1" />
    <path
       id="path1462"
       d="m 67.552373,100.49334 c 1.403165,1.5368 4.543581,6.28083 4.677217,7.41673 0.133633,1.1359 0.601356,2.27179 1.536798,3.0736 0.935445,0.80181 1.937705,1.33635 1.870887,2.33861 -0.06682,1.00226 -0.801809,2.67269 -0.801809,2.67269 l -4.677217,-2.40542 -4.409945,-8.8199 z"
       style="fill:#48373e;stroke:#000000;stroke-width:0.264583px;stroke-linecap:butt;stroke-linejoin:miter;stroke-opacity:1" />
    <path
       id="path1464"
       d="m 55.057521,119.13539 c 0.133636,-1.80407 -0.668174,-2.40543 -1.269529,-4.74403 -0.601356,-2.33861 -1.403165,-4.2095 -2.204974,-4.74404 -0.801809,-0.53454 -3.073599,-4.81085 -3.073599,-4.81085 l -2.138156,5.47903 3.741772,6.949 z"
       style="fill:#48373e;stroke:#000000;stroke-width:0.264583px;stroke-linecap:butt;stroke-linejoin:miter;stroke-opacity:1" />
    <path
       id="path1466"
       d="m 98.273808,86.98177 c 0.755954,-1.181177 1.417412,-5.055431 2.267862,-6.331101 0.85044,-1.27567 3.40178,-6.567337 3.82701,-7.512277 0.42522,-0.944941 1.55915,-2.645834 3.77976,-3.071056 2.22061,-0.425223 7.9375,-3.023809 9.49665,-4.441222 1.55915,-1.41741 6.52009,-5.149924 7.27604,-6.094865 0.75595,-0.944941 4.96094,-5.480656 5.5279,-6.3311 0.56696,-0.850448 2.31511,-3.165552 2.4096,-3.96875 0.0945,-0.803201 -0.18899,-4.535715 -0.18899,-4.535715 l -18.52083,5.622395 -14.882815,6.709077 -5.858629,10.3471 -0.992187,10.063615 2.409597,6.992559 z"
       style="fill:#48373e;stroke:#000000;stroke-width:0.264583px;stroke-linecap:butt;stroke-linejoin:miter;stroke-opacity:1" />
    <path
       id="path1468"
       d="m 120.93946,26.994223 c -0.73499,-0.400905 -3.14042,-1.002262 -4.07586,-1.937705 -0.93544,-0.935443 -2.60588,-1.804069 -3.27405,-1.5368 -0.66818,0.26727 -2.80633,0.133635 -3.54132,-0.334087 -0.73499,-0.467722 -6.81538,-2.138156 -8.08491,-1.937704 -1.26953,0.200452 -3.942221,1.26953 -3.942221,1.26953 l 6.347651,8.352173 16.23662,3.274052 z"
       style="fill:#48373e;stroke:#000000;stroke-width:0.264583px;stroke-linecap:butt;stroke-linejoin:miter;stroke-opacity:1" />
    <path
       id="path1470"
       d="m 83.187639,32.205977 c -0.868627,0.467723 -3.207234,1.469983 -3.875407,1.870887 -0.668174,0.400905 -2.204974,1.269529 -1.202714,2.138157 1.00226,0.868627 0.734991,3.207234 0.06682,3.942225 -0.668173,0.734991 -2.338607,3.207234 -2.338607,4.34313 0,1.135896 -0.935445,4.075861 -0.133636,4.81085 0.801809,0.734991 5.746295,-3.474503 5.746295,-3.474503 l 3.006781,-6.815373 z"
       style="fill:#48373e;stroke:#000000;stroke-width:0.264583px;stroke-linecap:butt;stroke-linejoin:miter;stroke-opacity:1" />
  </g>
  <g
     transform="translate(-11.566388,3.1528)"
     style="display:inline"
     inkscape:label="2"
     id="layer4"
     inkscape:groupmode="layer">
    <path
       id="path1440"
       d="m 47.807837,143.59055 c 0,0 2.672694,8.4524 4.276312,10.99146 1.603616,2.53906 5.879928,8.68626 7.784224,10.3901 1.904297,1.70385 5.412209,5.04472 6.113791,5.54585 0.701582,0.50113 1.570209,1.30294 2.739512,0.73499 1.169304,-0.56795 2.405427,-1.67044 2.572469,-2.53906 0.167045,-0.86863 0.434314,-2.03793 -0.03341,-3.24064 -0.46772,-1.20272 -4.677217,-8.4524 -5.278572,-9.55489 -0.601356,-1.10249 -3.006783,-5.81311 -3.140416,-6.38106 -0.133636,-0.56795 -1.035669,-5.31198 -1.035669,-5.31198 l -6.581513,-3.4411 -4.443357,0.73499 z"
       style="fill:#c8b7be;stroke:#000000;stroke-width:0.264583px;stroke-linecap:butt;stroke-linejoin:miter;stroke-opacity:1" />
    <path
       id="path1442"
       d="m 80.367186,145.37909 c 2.645834,3.82701 6.189361,9.26042 8.598959,11.19755 2.409597,1.93712 7.417784,5.29166 10.347097,6.56733 2.929318,1.27567 4.866448,2.59859 6.142118,1.88988 1.27567,-0.7087 2.3151,-1.93713 2.45684,-2.83482 0.14174,-0.89769 -0.0473,-3.2128 -2.17336,-5.62239 -2.12612,-2.4096 -5.19717,-6.18936 -6.520091,-7.60677 -1.322917,-1.41742 -6.945313,-8.032 -6.945313,-8.032 l -3.732514,-1.98438 -7.134301,1.32292 -1.464657,3.68527 z"
       style="fill:#c8b7be;stroke:#000000;stroke-width:0.264583px;stroke-linecap:butt;stroke-linejoin:miter;stroke-opacity:1" />
    <path
       id="path1444"
       d="m 94.305058,125.67708 c 0.803201,2.03162 1.039434,4.20499 2.882069,7.32329 1.842635,3.11831 4.015993,5.76414 6.189363,6.85082 2.17336,1.08668 4.7247,2.59859 6.66183,2.83482 1.93713,0.23623 3.30729,-0.14174 4.06324,-0.89769 0.75595,-0.75595 1.18118,-1.6064 0.8977,-1.98438 -0.28349,-0.37797 -3.49629,-2.03162 -4.39398,-2.69308 -0.89769,-0.66146 -3.68527,-2.26785 -4.15774,-3.49628 -0.47247,-1.22842 -0.47247,-2.69308 -0.0945,-3.16555 0.37798,-0.47247 0.61421,-0.70871 0.51972,-1.37016 -0.0945,-0.66146 -1.37017,-3.11831 -1.79539,-3.68527 -0.42522,-0.56696 -1.22842,-1.18117 -1.22842,-1.18117 l -6.945315,0.14174 z"
       style="fill:#c8b7be;stroke:#000000;stroke-width:0.264583px;stroke-linecap:butt;stroke-linejoin:miter;stroke-opacity:1" />
    <path
       id="path1446"
       d="m 92.408437,103.76739 c 0.06682,1.50339 0.233863,4.64381 1.536801,6.64833 1.302938,2.00453 2.739512,3.87541 4.510172,4.64381 1.77066,0.7684 4.17609,1.93771 5.3788,1.60362 1.20271,-0.33409 1.63703,-1.63703 1.57021,-2.3052 -0.0668,-0.66818 -0.56795,-1.9043 -1.30294,-2.47225 -0.73499,-0.56794 -1.60362,-1.83747 -1.80407,-2.87314 -0.20045,-1.03567 -0.13363,-3.64155 -0.13363,-3.64155 l -3.70837,-2.7061 -3.173825,-0.20046 z"
       style="fill:#c8b7be;stroke:#000000;stroke-width:0.264583px;stroke-linecap:butt;stroke-linejoin:miter;stroke-opacity:1" />
  </g>
  <g
     transform="translate(-11.566388,3.1528)"
     style="display:inline"
     inkscape:label="3"
     id="layer5"
     inkscape:groupmode="layer">
    <path
       id="path1438"
       d="m 46.103992,138.57925 c 0.133636,2.67269 -0.200451,2.67269 0.400904,4.34313 0.601359,1.67043 0.80181,2.33861 1.870888,3.14042 1.069078,0.8018 1.603618,1.06907 1.603618,1.06907 0,0 -0.700757,-0.85509 -0.842497,-1.4693 -0.141742,-0.61421 -0.212614,-1.1103 -0.212614,-1.1103 0,0 0.755955,0.49609 1.346542,1.79538 0.590587,1.2993 0.566965,1.48829 1.015812,1.63003 0.448844,0.14174 0.448844,0.14174 0.448844,0.14174 0,0 -1.039434,-1.41741 -0.897691,-2.59859 0.14174,-1.18117 -0.0945,-2.24423 -0.0945,-2.24423 0,0 1.417412,0.3071 2.267857,1.39379 0.850448,1.08668 0.708705,1.13392 1.370164,1.22842 0.661458,0.0945 1.417412,0.66146 1.417412,0.66146 0,0 -0.637836,-1.44104 -1.181177,-1.67727 -0.54334,-0.23624 -0.803198,-1.08669 -0.779576,-1.55915 0.02363,-0.47247 0.448847,-1.51191 0.448847,-1.51191 0,0 0.118118,1.2048 0.685083,1.77176 0.566963,0.56697 1.960751,0.8032 1.960751,0.8032 0,0 -1.157552,-0.73233 -1.086681,-1.18117 0.07087,-0.44885 0.07087,-0.44885 0.07087,-0.44885 0,0 0.732327,0.28348 1.110303,1.11031 0.377978,0.82682 0.141742,0.99218 0.448847,1.53552 0.307107,0.54334 1.511906,0.82683 1.748142,1.37017 0.236233,0.54334 0.236233,0.87407 0.236233,0.87407 0,0 0.25986,-0.37798 0.165365,-0.70871 -0.09449,-0.33073 -0.33073,-1.08668 -0.779577,-1.5119 -0.448844,-0.42522 -0.28348,-0.92132 -0.28348,-0.92132 0,0 2.324653,1.69141 2.491695,2.72708 0.167045,1.03567 0.501132,1.45328 0.734992,1.70384 0.233862,0.25057 0.551243,0.45102 0.551243,0.45102 0,0 -0.868624,-1.33635 -0.65147,-2.23838 0.217157,-0.90204 0.217157,-1.10249 0.217157,-1.25283 0,-0.15034 -0.06682,-0.55124 -0.06682,-0.55124 0,0 0.734992,1.10248 0.818513,1.68714 0.08352,0.58465 0.08352,0.58465 0.08352,0.58465 0,0 0.334087,-0.70158 0.317383,-1.11919 -0.01669,-0.41761 -0.150339,-1.05238 -0.150339,-1.05238 0,0 0.334087,0.31739 0.434311,0.81852 0.100227,0.50113 0.08352,0.7684 0.08352,0.7684 0,0 0.250563,-0.33409 0.217157,-0.71829 -0.03341,-0.3842 -0.317384,-1.46998 -0.283975,-1.70384 0.03341,-0.23386 0.305782,-0.60059 0.140417,-1.12031 -0.165364,-0.51972 -0.0569,-2.10363 -0.0569,-2.10363 0,0 0.467723,0.81851 1.436574,0.80181 0.968851,-0.0167 0.968851,-0.0167 0.968851,-0.0167 0,0 -0.267269,-0.4009 -0.567946,-0.4009 -0.300678,0 -0.551244,-0.18375 -0.551244,-0.43431 0,-0.25057 0.283975,-0.43432 0.467722,-0.41761 0.183748,0.0167 0.484426,0.18375 0.484426,0.18375 0,0 -0.03341,-0.35079 -0.167045,-0.51784 -0.133633,-0.16704 -0.334086,-0.60135 -0.250563,-0.7851 0.08352,-0.18375 0.384199,-0.61806 0.35079,-1.31965 -0.03341,-0.70158 -0.283974,-1.00226 -0.283974,-1.00226 0,0 0.183747,0.88533 -0.03341,1.46999 -0.217154,0.58465 -2.860345,0.85719 -3.56905,-0.25311 -0.708705,-1.11031 -0.732329,-1.48828 -0.732329,-1.48828 0,0 0.25986,0.4016 0.897694,0.33073 0.637836,-0.0709 0.685083,-0.18899 0.685083,-0.18899 0,0 -1.27567,-0.21261 -1.346541,-0.66146 -0.07087,-0.44885 -1.346539,-0.23624 -1.582775,-0.89769 -0.236236,-0.66146 -0.897694,-1.63003 -0.779576,-4.65384 0.118118,-3.02381 -0.02363,-8.17373 -1.039434,-9.70926 -1.015812,-1.53553 -1.157552,-1.58277 -1.157552,-1.58277 0,0 0.519715,0.3071 0.779576,0.47246 0.259858,0.16537 0.732327,0.30711 1.015809,0.25986 0.283483,-0.0472 0.519719,-0.16536 0.519719,-0.16536 0,0 -0.897694,-0.0236 -1.13393,-0.23624 -0.236233,-0.21261 -0.897692,-1.25204 -1.370164,-1.5119 -0.472469,-0.25987 -2.905691,-1.63003 -3.283666,-2.66947 -0.377976,-1.03943 -2.574962,-4.77195 -2.976563,-5.97675 -0.4016,-1.2048 -1.322917,-3.21279 -1.252045,-3.827 0.07087,-0.61422 0.07087,-0.61422 0.07087,-0.61422 0,0 0.07087,0.66146 0.33073,0.94494 0.25986,0.28349 0.330729,0.4016 0.637836,0.44885 0.307104,0.0473 0.448847,-0.16536 0.448847,-0.16536 0,0 -0.212614,0.0709 -0.425225,-0.0709 -0.212611,-0.14175 -0.425223,-0.63784 -0.425223,-0.87407 0,-0.23624 0.04725,-0.4961 -0.4016,-1.11031 -0.448847,-0.61421 -1.488281,-2.22061 -1.464657,-3.37816 0.02363,-1.15755 -0.09449,-1.370165 -0.354353,-1.653648 -0.259858,-0.283482 -0.307105,-0.661458 -0.307105,-0.661458 0,0 0.472469,0.614212 0.755952,0.685083 0.283482,0.07087 0.4016,0.236233 0.472471,0.472473 0.07087,0.23623 0.07087,0.54334 0.07087,0.54334 0,0 0.354354,-0.33073 0.283483,-0.66146 -0.07087,-0.330731 -0.33073,-0.755953 -0.685081,-0.992189 -0.354354,-0.236233 -0.614211,-0.496094 -0.614211,-0.779576 0,-0.28348 -0.576271,-1.452558 -0.559568,-1.73653 0.01669,-0.283974 -0.367493,-1.820775 0.551244,-1.169304 0.918739,0.65147 1.307616,1.53567 1.260369,1.842777 -0.04725,0.307105 -0.283483,0.803199 0.04725,1.133928 0.330729,0.330729 0.496093,0.330729 0.496093,0.330729 0,0 -0.236236,-0.165365 -0.330729,-0.590587 -0.09449,-0.425222 0.259858,-0.614212 0.259858,-0.614212 0,0 -0.14174,0.519719 0.259861,1.228424 0.401597,0.708705 0.54334,0.496093 0.54334,1.063056 0,0.566964 0.60438,3.189654 1.005284,3.690784 0.400902,0.50113 0.818513,1.1526 0.868625,1.83748 0.05011,0.68488 0.467722,1.5535 0.818512,1.87089 0.350793,0.31738 2.088044,2.18827 2.255089,3.02348 0.167042,0.83522 -0.03341,2.17157 0.217154,2.52236 0.250566,0.35079 0.902036,0.55125 0.902036,0.55125 0,0 -0.484426,-0.98556 -0.400905,-1.28624 0.08352,-0.30068 0.283975,-0.3842 0.283975,-0.3842 0,0 0.835215,0.80181 0.935442,1.72055 0.100227,0.91874 0.200454,1.21941 0.317384,1.45327 0.11693,0.23387 0.11693,0.23387 0.11693,0.23387 0,0 -0.167045,-0.70159 -0.06682,-0.85192 0.100227,-0.15034 0.100227,-0.15034 0.100227,-0.15034 0,0 1.671246,1.12405 1.83661,2.3761 0.165365,1.25204 0.685083,3.61439 1.346541,3.89787 0.661459,0.28349 0.755952,0.54335 0.87407,0.85045 0.118118,0.30711 0.307105,2.62221 1.795386,3.47266 1.488281,0.85045 1.606399,0.92131 1.795388,1.34654 0.188987,0.42522 2.173362,1.63002 2.551338,2.57496 0.377978,0.94494 1.110305,1.70089 1.322916,2.48047 0.212614,0.77958 0.165365,1.37016 0.165365,1.67727 0,0.3071 0.0945,0.92132 0.472471,1.13393 0.377976,0.21261 0.377976,0.21261 0.377976,0.21261 0,0 -0.354354,-0.33073 -0.330729,-0.66146 0.02363,-0.33073 0.283483,-0.66146 0.283483,-0.66146 0,0 1.27567,1.13393 1.937128,1.32292 0.661458,0.18899 1.937128,0.11812 1.984375,1.03943 0.04725,0.92132 1.795386,3.94513 2.882069,4.63021 1.086681,0.68508 1.464657,2.4096 1.488281,2.78758 0.02363,0.37797 -0.614211,1.74814 -0.02363,2.38597 0.590587,0.63784 0.755952,0.61421 0.755952,0.61421 0,0 -0.590587,-1.06306 -0.354351,-1.37016 0.236233,-0.30711 0.614211,-0.33073 0.614211,-0.33073 0,0 0.377976,0.7087 0.354351,1.44103 -0.02363,0.73233 -0.188986,0.77958 -0.188986,0.77958 0,0 0.519716,-0.16536 0.566962,-0.61421 0.04725,-0.44885 0.165365,-0.44885 0.165365,-0.44885 0,0 0.4016,0.42522 0.354354,0.87407 -0.04725,0.44885 -0.02363,0.89769 0.212611,1.03943 0.236236,0.14175 0.236236,0.14175 0.236236,0.14175 0,0 -0.212612,-0.33073 -0.118118,-0.59059 0.09449,-0.25986 0.4016,-1.03944 0.354351,-1.44103 -0.04725,-0.4016 -0.236233,-1.54735 -0.04725,-1.85445 0.188989,-0.30711 0.295294,-0.35435 0.295294,-0.35435 0,0 0.507907,0.5079 0.578776,0.93313 0.07087,0.42522 -0.318916,0.69689 0.118118,1.26385 0.437036,0.56697 0.862258,0.46066 0.862258,0.46066 0,0 -0.649647,-0.33073 -0.661458,-0.63783 -0.0118,-0.30711 0.236236,-0.66146 0.236236,-0.93313 0,-0.27167 -0.08268,-0.61421 -0.177176,-0.86226 -0.0945,-0.24805 0.437034,-1.35835 0.815009,-0.83864 0.377976,0.51972 0.626023,0.80321 0.578777,1.03944 -0.04725,0.23623 0.02363,0.22442 -0.118118,0.43703 -0.14174,0.21262 0.0118,0.67327 0.0118,0.67327 0,0 0.05906,-0.34254 0.177176,-0.51971 0.118118,-0.17718 0.295293,-0.50791 0.236235,-0.73233 -0.05906,-0.22442 -0.248046,-0.76777 -0.165364,-0.92132 0.08268,-0.15355 0.283482,-0.98037 0.933127,-0.87407 0.649647,0.10631 1.245809,0.63971 1.362739,0.68982 0.11693,0.0501 0.601358,0.10023 0.601358,0.10023 0,0 -0.668176,-0.30068 -0.801809,-0.7684 -0.133636,-0.46772 -0.06682,-0.60136 -0.06682,-0.60136 0,0 1.202714,-0.30068 1.68714,0.0501 0.484425,0.35079 0.551243,0.45102 0.501128,0.7517 -0.05011,0.30068 -0.05011,0.30068 -0.05011,0.30068 0,0 0.400905,-0.26727 0.451017,-0.60136 0.05012,-0.33409 -0.100224,-0.70158 -0.100224,-0.70158 0,0 2.12145,1.43657 3.00678,1.63702 0.885331,0.20046 1.57021,0.50114 1.80407,0.61807 0.23386,0.11693 1.269531,0.33408 1.737251,0.30067 0.467723,-0.0334 0.668174,-0.13363 0.668174,-0.13363 0,0 -0.918739,0.0501 -1.403165,-0.26727 -0.484426,-0.31738 -0.417608,-1.1359 -0.417608,-1.1359 0,0 0.785104,0.15034 0.952148,0.51784 0.167042,0.36749 0.06682,0.43431 0.06682,0.43431 0,0 0.250563,-0.13363 0.200451,-0.3675 -0.05011,-0.23386 -0.35079,-0.63476 -0.35079,-0.63476 0,0 0.618059,-0.20045 0.785104,0.0334 0.167042,0.23386 0.200451,0.56795 0.200451,0.56795 0,0 0.250565,-0.18375 0.200453,-0.40091 -0.05011,-0.21715 -1.018966,-1.40316 -0.818512,-1.70384 0.200451,-0.30068 0.400902,-0.10023 0.250563,-0.66817 -0.150339,-0.56795 0.100227,-0.71829 0.267272,-0.71829 0.167042,0 0.517834,-0.0668 0.601355,-0.20045 0.08352,-0.13364 0.133636,-0.50113 0,-0.70159 -0.133636,-0.20045 -0.267269,-0.63476 -0.267269,-0.63476 0,0 -0.06682,0.50113 0.05011,0.85192 0.11693,0.35079 -0.384198,0.28398 -0.467722,0.16705 -0.08352,-0.11694 -0.05011,-0.58466 -0.250563,-0.86863 -0.200454,-0.28398 -0.350793,-0.15034 -0.534541,-0.20045 -0.183747,-0.0501 -0.868627,-0.23387 -0.868627,-0.23387 0,0 0.668176,0.58466 0.952148,0.63477 0.283975,0.0501 0.217157,0.71829 0.06682,0.7517 -0.150339,0.0334 -0.968851,0.16704 -1.135896,-0.3508 -0.167042,-0.51783 -1.637024,-2.05463 -2.271789,-2.50565 -0.634767,-0.45101 -2.271792,-2.22168 -2.438836,-2.58917 -0.167042,-0.3675 -0.250563,-0.7684 -0.250563,-0.7684 0,0 0.150339,0.45102 0.718285,0.70158 0.567949,0.25057 1.00226,0.25057 1.00226,0.25057 0,0 -0.701582,-0.26727 -0.835215,-0.53454 -0.133636,-0.26727 0,-1.01897 -0.467723,-1.31964 -0.467722,-0.30068 -2.438833,-0.55125 -2.973374,-0.95215 -0.534538,-0.40091 -0.651467,-0.71829 -0.651467,-0.71829 0,0 0.517834,0.3842 0.88533,0.45102 0.367495,0.0668 0.601355,0.0501 0.601355,0.0501 0,0 -0.818512,-0.33409 -0.918739,-0.55124 -0.100227,-0.21716 -2.021226,-3.0569 -2.722808,-3.35758 -0.701583,-0.30067 -1.469983,-1.63702 -1.436574,-2.57247 0.03341,-0.93544 0.53454,-1.36975 0.53454,-1.36975 0,0 -0.03341,0.23386 0.167042,0.70158 0.200454,0.46772 0.808419,0.72273 1.103712,0.73454 0.295294,0.0118 0.637837,-0.41341 0.980377,-0.3071 0.34254,0.1063 0.389787,0.0709 0.389787,0.0709 0,0 -0.484281,-0.22442 -0.496094,-0.3071 -0.0118,-0.0827 0.04725,-0.23624 0.177178,-0.25986 0.129929,-0.0236 0.129929,-0.0236 0.129929,-0.0236 0,0 -0.212611,-0.14174 -0.34254,-0.0827 -0.129932,0.0591 -0.153554,0.41341 -0.236236,0.42522 -0.08268,0.0118 -0.472472,0.21262 -0.626023,0.17718 -0.153553,-0.0354 -0.732329,-0.37797 -0.685083,-0.86226 0.04725,-0.48428 0.212612,-0.7087 0.07087,-0.93313 -0.141743,-0.22442 -1.322917,-0.0118 -1.819011,-0.69689 -0.496094,-0.68508 -1.119111,-3.481 -2.054553,-4.6503 -0.935445,-1.1693 -1.570209,-2.83974 -2.639287,-2.93996 -1.069078,-0.10023 -3.374279,-1.16931 -4.042453,-2.43884 -0.668173,-1.26953 -4.443354,-7.11605 -4.109267,-8.18513 0.334087,-1.06908 0.902033,-1.50339 0.902033,-1.50339 0,0 -0.06682,0.66818 0.267269,0.90204 0.334087,0.23386 1.002263,0.33408 1.002263,0.33408 0,0 -0.668176,-0.4009 -0.668176,-0.73499 0,-0.33409 0.06682,-0.86862 -0.06682,-1.23612 -0.133636,-0.367494 -0.968854,-0.601357 -1.135896,-1.03567 -0.167045,-0.434311 -1.737252,-2.104747 -1.737252,-3.841999 0,-1.737251 -0.53454,-3.107007 -0.53454,-3.107007 0,0 0.434313,0.434313 0.801809,0.434313 0.367496,0 0.367496,0 0.367496,0 0,0 -0.367496,-0.100227 -0.601356,-0.434313 -0.233862,-0.334087 -0.752205,-0.678691 -0.787641,-0.938549 -0.03544,-0.259858 -0.248047,-2.374164 -0.74414,-3.531716 -0.496094,-1.157552 -0.354354,-2.29148 -0.236236,-2.551338 0.118118,-0.25986 0.496094,-1.700892 0.897694,-1.039434 0.4016,0.661459 0.472469,2.220608 0.566965,2.740327 0.09449,0.519716 0.661458,2.598586 0.779576,3.590774 0.118116,0.992187 1.441032,3.519903 1.677268,4.134114 0.236236,0.614212 0.826823,2.055244 0.850448,2.504091 0.02363,0.448847 1.204798,2.102493 1.677268,3.425407 0.472471,1.32292 1.432589,2.95846 1.365771,3.62664 -0.06682,0.66817 -0.300678,1.43657 -0.300678,1.43657 0,0 0.501129,-0.30068 0.501129,-0.60136 0,-0.30068 0.133635,-0.50113 0.133635,-0.50113 0,0 0.768401,1.73725 0.968852,2.47225 0.200453,0.73499 1.302938,3.34086 2.104747,4.44335 0.801809,1.10249 1.436574,2.43884 1.904296,2.6727 0.467723,0.23386 1.403165,-0.10023 1.804069,0.20045 0.400905,0.30067 2.305199,2.07134 2.873148,2.93996 0.567946,0.86863 2.00452,1.57021 2.739512,2.13816 0.734991,0.56795 2.867202,2.90604 4.048376,3.14228 1.181177,0.23623 1.842635,0.8032 2.220611,1.70089 0.377975,0.89769 1.41741,1.65365 1.27567,3.1183 -0.141743,1.46466 0.188986,3.44904 0.803198,4.1105 0.614212,0.66146 1.795388,1.55915 1.795388,1.55915 0,0 -1.606399,-1.41741 -1.606399,-2.97657 0,-1.55915 0.650547,-1.93488 0.750771,-2.53624 0.100227,-0.60136 0.200454,-1.36976 0.200454,-1.36976 0,0 0.501129,1.40317 0.501129,1.80407 0,0.40091 -0.367496,1.40317 0.133635,1.80407 0.501132,0.40091 0.734992,0.43432 0.734992,0.43432 0,0 -0.734992,-0.66818 -0.601356,-1.30294 0.133633,-0.63477 0.734991,-1.33635 0.734991,-1.33635 0,0 0.634765,0.53454 0.668174,1.1693 0.03341,0.63477 0.200451,1.10249 0.200451,1.10249 0,0 0.06682,-1.1359 0.133636,-1.46998 0.06682,-0.33409 -0.400905,-0.93544 -0.133636,-1.16931 0.267269,-0.23386 0.902036,-1.87088 2.372019,-0.83521 1.469974,1.03567 2.739504,0.96885 3.340864,0.96885 0.60136,0 1.03567,-0.23386 1.40316,0.10023 0.3675,0.33408 0.63477,0.70158 0.63477,1.00226 0,0.30067 0.16704,0.7684 0.16704,0.7684 0,0 0.20046,-0.63477 0.20046,-1.10249 0,-0.46772 -0.51784,-0.86028 -0.5429,-1.01061 -0.025,-0.15034 0,-0.43432 0.3508,-0.45102 0.35079,-0.0167 1.16095,0.65982 2.06298,0.79346 0.90204,0.13363 1.40317,-0.3675 1.77066,0.63476 0.3675,1.00226 0.13364,1.40316 0.13364,1.40316 0,0 0.73499,-0.7684 0.63476,-1.26952 -0.10023,-0.50114 -0.13363,-2.13816 -0.13363,-2.13816 0,0 1.13589,0.23386 1.30294,1.00226 0.16704,0.7684 0.16704,0.83521 0.16704,0.83521 0,0 0.50113,-1.03566 0.23386,-1.5702 -0.26727,-0.53454 -0.80181,-1.46998 -1.36975,-1.83748 -0.56795,-0.3675 -3.20724,-0.23386 -4.10927,-1.23612 -0.90204,-1.00226 -0.80181,-1.87089 -0.80181,-1.87089 0,0 1.87088,1.43658 3.30746,1.50339 1.43657,0.0668 1.80407,-0.16704 1.80407,-0.16704 0,0 -1.5368,-0.0334 -2.10475,-0.46772 -0.56795,-0.43432 -4.55651,-3.09925 -6.63538,-3.68983 -2.078867,-0.59059 -5.149923,-1.7009 -5.646017,-2.5041 -0.496094,-0.8032 -0.614211,-1.25204 -0.614211,-1.25204 0,0 0.8032,1.1103 1.582774,1.1103 0.779576,0 1.346541,-0.0709 1.346541,-0.0709 0,0 -1.488281,-0.35435 -1.866257,-0.75595 -0.377976,-0.4016 -1.346541,-1.74814 -1.984375,-2.07887 -0.637836,-0.33073 -2.976562,-1.72452 -3.165551,-2.57496 -0.188987,-0.85045 -0.212612,-1.53553 -0.212612,-1.53553 0,0 0.354354,0.92132 0.708705,0.99219 0.354354,0.0709 0.543341,0.0709 0.543341,0.0709 0,0 -0.472469,-0.23624 -0.543341,-0.4961 -0.07087,-0.25985 -0.04725,-0.85044 -0.448847,-1.2048 -0.401598,-0.35435 -1.889879,-1.9135 -2.220608,-2.57496 -0.330729,-0.66146 0.259858,-1.37016 -0.874069,-2.78757 -1.133915,-1.41741 -1.630008,-2.26786 -1.748126,-3.283667 -0.118118,-1.015813 -0.708705,-3.354539 -1.937129,-5.008185 -1.22842,-1.653645 -1.252045,-2.126117 -1.346538,-2.622211 -0.09449,-0.496094 -0.165365,-0.850445 -0.165365,-0.850445 0,0 0.826823,0.330729 0.968563,1.01581 0.141743,0.685083 0.73233,1.086681 0.73233,1.086681 0,0 -0.448848,-0.779574 -0.448848,-1.157553 0,-0.377975 -0.236235,-0.992187 -0.54334,-1.181174 -0.307104,-0.188989 -1.889882,-1.299294 -2.14974,-2.102493 -0.259857,-0.803198 -1.322916,-1.724517 -1.204798,-4.039621 0.118118,-2.315104 0.118118,-3.543525 0.897694,-2.811198 0.779574,0.73233 0.897692,2.55134 1.441032,3.094681 0.543343,0.54334 1.13393,1.157552 1.488281,2.007999 0.354354,0.850445 2.055246,3.212796 2.622211,4.701077 0.566965,1.488282 3.307292,5.504281 3.685268,7.559524 0.377976,2.055245 0.425222,3.638025 0.425222,3.638025 0,0 0.496094,-1.13393 0.401601,-1.79539 -0.09449,-0.66146 0,-1.03943 0,-1.03943 0,0 0.732329,1.67726 0.377976,2.52771 -0.354352,0.85045 -0.566965,1.53553 -0.425223,2.03162 0.14174,0.4961 0.661458,1.27567 0.826823,1.37017 0.165365,0.0945 0.779576,0.42522 0.87407,0.7087 0.09449,0.28348 0.212611,0.68508 0.212611,0.68508 0,0 0.330729,-1.20479 0.02363,-1.46465 -0.307107,-0.25986 -0.212611,-1.15756 -0.212611,-1.15756 0,0 0.448844,0.68509 0.826823,0.87408 0.377973,0.18898 0.377973,0.18898 0.377973,0.18898 0,0 -0.448847,-0.59059 -0.519718,-0.82682 -0.07087,-0.23624 -0.07087,-0.68508 0.307107,-0.66146 0.377976,0.0236 1.181174,-0.7087 1.81901,-0.4016 0.637834,0.30711 2.244233,0.61421 2.29148,1.29929 0.04725,0.68509 0.4016,1.18118 0.614211,1.32292 0.212612,0.14174 0.283483,0.23624 0.283483,0.23624 0,0 -0.425225,-0.82683 -0.377976,-1.18118 0.04725,-0.35435 0.307105,-0.61421 0.307105,-0.61421 0,0 0.637833,0.16536 0.637833,0.47247 0,0.30711 0.862262,1.67727 1.228422,1.73633 0.36617,0.0591 0.75596,0.0354 0.75596,0.0354 0,0 -0.82683,-0.27167 -0.75596,-0.69689 0.0709,-0.42522 0.30711,-0.54334 0.30711,-0.54334 0,0 0.68508,0.11812 0.79139,0.54334 0.1063,0.42522 0.0827,0.61421 0.0827,0.61421 0,0 0.29529,-0.31892 0.25986,-0.51972 -0.0354,-0.2008 -0.0354,-0.2008 -0.0354,-0.2008 0,0 0.6024,-0.16536 0.6969,0.23624 0.0945,0.4016 0.0993,0.59153 0.23291,0.64164 0.13363,0.0501 0.52618,0.10858 0.52618,0.10858 0,0 -0.15033,-0.21716 -0.24221,-0.26727 -0.0919,-0.0501 -0.26727,-0.45102 -0.10858,-0.46772 0.15869,-0.0167 0.42596,-0.16705 0.55125,0.0585 0.12528,0.22551 0.74334,0.15869 0.81851,0.35914 0.0752,0.20046 0.22551,0.30903 0.1754,0.51784 -0.0501,0.2088 -0.16705,0.39255 -0.16705,0.39255 0,0 0.39255,-0.1921 0.39255,-0.3842 0,-0.1921 -0.0167,-0.39255 0.0501,-0.45937 0.0668,-0.0668 0.15034,-0.16704 0.15034,-0.27562 0,-0.10858 0.0418,-0.29233 0.0418,-0.29233 0,0 0.25418,0.0919 0.26009,0.26319 0.006,0.17127 0.14764,0.21262 0.14764,0.21262 0,0 -0.11221,-0.18309 -0.065,-0.27758 0.0473,-0.0945 -0.0354,-0.35436 -0.0354,-0.35436 0,0 0.66987,0.11437 0.73669,0.48187 0.0668,0.36749 0.46772,0.75169 0.46772,0.75169 0,0 -0.20045,-0.53453 -0.0501,-0.68487 0.15034,-0.15034 0.26727,-0.33409 0.26727,-0.33409 0,0 0.3842,1.67043 0.7684,1.87088 0.3842,0.20046 0.51783,0.46773 0.53453,0.85193 0.0167,0.3842 0.0167,0.3842 0.0167,0.3842 0,0 0.3842,-0.3842 0.28397,-0.73499 -0.10022,-0.3508 -0.10022,-0.3508 -0.10022,-0.3508 0,0 0.45101,0.31739 0.45101,0.60136 0,0.28397 0.0167,0.50113 0.23386,0.65147 0.21716,0.15034 0.21716,0.15034 0.21716,0.15034 0,0 -0.13363,-0.25056 -0.13363,-0.56795 0,-0.31738 -0.16705,-0.86862 -0.41761,-1.26953 -0.25057,-0.4009 -0.80181,-0.85192 -0.85192,-1.35305 -0.0501,-0.50113 -0.18375,-1.45328 -0.73499,-2.08804 -0.55125,-0.63477 -1.8876,-2.27179 -2.03793,-3.0736 -0.15034,-0.80181 -0.78511,-2.138158 -1.08579,-2.539063 -0.30068,-0.400905 -0.61806,-0.935445 -0.61806,-0.935445 0,0 0.60136,0.400905 1.33635,0.501132 0.73499,0.100226 1.03567,-0.05011 1.03567,-0.05011 0,0 -0.88533,-0.03341 -1.41987,-0.300677 -0.53454,-0.267272 -1.62032,-1.302941 -1.82077,-1.586916 -0.20046,-0.283972 -2.789633,-2.990077 -2.923266,-3.307458 -0.133636,-0.317383 -0.734992,-1.937705 -0.634767,-3.324167 0.100226,-1.386459 -0.08352,-3.324164 -0.08352,-3.324164 0,0 0.300677,0.801809 0.952153,1.052375 0.65147,0.250566 0.88533,0.167042 0.88533,0.167042 0,0 -0.78511,-0.23386 -1.035674,-0.601355 -0.250566,-0.367496 -0.851921,-2.021227 -0.902036,-2.405425 -0.05011,-0.384202 -0.651468,-1.57021 -0.300678,-1.80407 0.350793,-0.233862 0.442666,0.133633 0.467723,0.208804 0.02506,0.07517 0.225509,0.250566 0.350789,0.250566 0.125283,0 0.292328,-0.05012 0.292328,-0.05012 0,0 -0.292328,-0.0084 -0.34244,-0.108577 -0.05011,-0.100227 -0.100227,-0.425961 -0.23386,-0.643117 -0.133635,-0.217157 -0.851921,-1.22777 -0.851921,-1.645378 0,-0.41761 0.08352,-0.601358 0.08352,-0.601358 0,0 -0.05012,0.484428 0.501129,0.751697 0.551243,0.267269 0.902036,0.167042 0.902036,0.167042 0,0 -0.851921,-0.283972 -0.902036,-0.634764 -0.05011,-0.35079 -0.189505,-0.898962 -0.591103,-1.513174 -0.401601,-0.614209 -0.401601,-2.409597 -0.401601,-2.409597 0,0 0.637834,0.330729 0.779577,0.921316 0.14174,0.59059 0.14174,0.59059 0.14174,0.59059 0,0 0.354353,-0.73233 0.165364,-1.039434 -0.188986,-0.307108 -0.661458,-0.897695 -0.661458,-1.110306 0,-0.212611 -0.897692,-1.464659 -1.299292,-1.795388 -0.401601,-0.330729 -1.724517,-1.01581 -1.653646,-1.370164 0.07087,-0.354351 0.236236,-0.803198 0.54334,-0.637833 0.307105,0.165364 0.661459,0.401598 0.685083,0.874069 0.02363,0.472469 0.590587,0.755952 0.590587,0.755952 0,0 -0.330729,-0.661458 -0.330729,-1.039434 0,-0.377976 0.02363,-0.968563 -0.165364,-1.393788 -0.188989,-0.425223 -0.07087,-0.992188 0.04725,-1.252045 0.118118,-0.259858 0.354354,-0.803201 0.354354,-0.803201 0,0 0.07087,1.181176 0.377976,1.53553 0.307105,0.354351 0.708705,0.425223 0.708705,0.425223 0,0 -0.755952,-0.850448 -0.637836,-1.488282 0.118118,-0.637836 0.448847,-1.653645 0.448847,-1.653645 0,0 0.614211,-0.377976 0.708705,0.732329 0.0945,1.110303 -0.07087,1.55915 -0.07087,1.55915 0,0 0.519716,-0.661458 0.519716,-1.133927 0,-0.472472 -0.118118,-1.771764 -0.118118,-1.771764 0,0 0.510246,0.155477 0.560358,0.489564 0.05012,0.334086 0.06682,0.350792 0.06682,0.350792 0,0 0.367495,-0.53454 0.150339,-0.751697 -0.217157,-0.217157 -0.384199,-0.501129 -0.35079,-0.835215 0.03341,-0.334087 0.300678,-1.353053 0.283975,-1.787367 -0.01669,-0.434313 0.0167,-0.918739 0.0167,-0.918739 0,0 0.634771,0.451017 0.584651,0.952148 -0.0501,0.501132 -0.18374,1.002261 0.20046,1.302938 0.3842,0.300678 0.85192,0.183748 0.85192,0.183748 0,0 -0.85192,-0.367496 -0.7517,-0.668173 0.10023,-0.300678 0.28398,-0.718286 0.26727,-0.985557 -0.0167,-0.267269 -0.0668,-0.668174 -0.0668,-0.668174 0,0 0.43432,0.651471 0.91874,0.751697 0.48443,0.100224 0.73499,0.0167 0.73499,0.0167 0,0 -0.83521,-0.283975 -0.98555,-0.517835 -0.15034,-0.23386 -0.16705,-0.501131 -0.16705,-0.501131 0,0 0.48508,0.10183 0.55595,0.290816 0.0709,0.18899 0.12993,0.165365 0.12993,0.165365 0,0 -0.0472,-0.188987 -0.0354,-0.330729 0.0118,-0.14174 0.0945,-0.496094 -0.0709,-0.779574 -0.16537,-0.283482 0.15543,-1.133242 0.0468,-1.475682 -0.10858,-0.342439 -0.21716,-0.484425 -0.21716,-0.484425 0,0 0.70993,-0.167042 0.79346,0.23386 0.0835,0.400904 0,0.459369 0.33409,0.593005 0.33408,0.133636 0.77675,-0.242213 0.77675,-0.242213 0,0 -0.65982,0.05011 -0.70159,-0.150339 -0.0418,-0.200453 0.0585,-0.576299 0.0585,-0.576299 0,0 0.72664,0.01669 0.80181,0.517834 0.0752,0.501129 -0.0418,0.734992 -0.0418,0.734992 0,0 0.26727,-0.06682 0.30068,-0.492779 0.0334,-0.425961 -0.22628,-1.173858 -0.22628,-1.173858 0,0 1.63002,0.496094 1.53552,1.441032 -0.0945,0.944941 -0.35435,1.086683 0.11812,1.606399 0.47247,0.519718 1.34654,0.307107 1.34654,0.307107 0,0 -1.13393,-0.708705 -0.8032,-1.370163 0.33073,-0.661459 0.73233,-0.803201 0.61421,-1.653646 -0.11811,-0.850448 -1.06305,-2.362353 -1.06305,-2.362353 0,0 1.65364,0.188989 1.93712,1.81901 0.28349,1.630024 -0.42522,2.031624 -0.42522,2.031624 0,0 0.77958,-0.02363 0.94494,-0.661458 0.16537,-0.637836 0.23624,-1.677271 0.23624,-1.677271 0,0 0.42522,0.08268 0.41341,0.448847 -0.0118,0.366165 0.28348,0.555152 0.28348,0.555152 0,0 -0.12993,-0.413412 -0.11812,-0.673269 0.0118,-0.259858 0.22443,-0.933128 -0.0118,-1.771764 -0.23623,-0.838634 -0.36616,-1.240235 -0.17717,-1.511903 0.18898,-0.271672 1.32291,-0.803201 1.21661,0.04725 -0.10631,0.850445 -0.25986,1.452846 0.0472,1.700893 0.30711,0.248047 0.6969,0.4016 0.6969,0.4016 0,0 -0.50791,-0.59059 -0.42523,-0.980376 0.0827,-0.38979 0.30711,-0.897695 0.25986,-1.145741 -0.0472,-0.248047 0.2008,-0.696894 0.2008,-0.696894 0,0 0.59059,-0.129929 0.66146,0.248046 0.0709,0.377976 -0.11812,0.897695 -0.11812,0.897695 0,0 0.35436,-0.177176 0.4016,-0.401601 0.0473,-0.224414 0.0473,-0.838626 0.0473,-0.838626 0,0 0.81753,-0.423889 0.93446,0.311103 0.11693,0.734991 0.15034,1.353052 -0.15034,1.603615 -0.30068,0.250566 -0.36749,0.634768 -0.36749,0.634768 0,0 0.50113,-0.484429 0.71828,-0.634768 0.21716,-0.150339 0.25057,-0.283972 0.28398,-0.584652 0.0334,-0.300678 -0.0835,-0.88533 0.0835,-1.069078 0.16704,-0.183748 0.23386,-0.718286 0.58465,-0.451017 0.35079,0.267269 0.50113,0.618062 0.3675,0.952148 -0.13364,0.334087 -0.3842,0.534541 -0.10023,0.851922 0.28398,0.317383 0.60136,0.200453 0.60136,0.200453 0,0 -0.3675,-0.217157 -0.35079,-0.41761 0.0167,-0.200451 0.33408,-0.417608 0.36749,-0.517835 0.0334,-0.100227 -0.0835,-0.618061 -0.0835,-0.618061 0,0 0.55124,0.167045 0.58465,0.451019 0.0334,0.283972 -0.0835,0.501129 -0.0835,0.501129 0,0 0.30068,-0.167042 0.33409,-0.334087 0.0334,-0.167042 0.0835,-0.567946 -0.18375,-0.801809 -0.26727,-0.23386 -0.31738,-1.820772 0.46772,-1.920999 0.7851,-0.100224 1.78737,-0.751695 1.95441,-0.317381 0.16704,0.434311 0.15034,0.818512 -0.0668,1.018963 -0.21716,0.200454 -0.45101,-0.167042 -0.41761,0.501132 0.0334,0.668173 0.41761,0.801809 0.41761,0.801809 0,0 -0.23386,-0.56795 -0.11693,-0.734992 0.11693,-0.167044 0.56795,-0.334086 0.60136,-0.133635 0.0334,0.200453 -0.15034,0.451016 0.0334,0.634764 0.18374,0.183748 0.3842,0.183748 0.3842,0.183748 0,0 -0.20046,-0.317381 -0.16705,-0.46772 0.0334,-0.150339 0.25057,-1.386461 0.78511,-1.319644 0.53454,0.06682 1.36975,-0.11693 1.40316,0.384199 0.0334,0.501132 -0.10022,0.868627 -0.10022,0.868627 0,0 0.51783,-0.167044 0.63476,-0.601355 0.11693,-0.434314 0.50113,-0.835218 0.50113,-0.835218 0,0 0.53454,0.417607 0.51784,0.88533 -0.0167,0.467722 -0.25057,0.868624 -0.25057,0.868624 0,0 0.40091,-0.200451 0.55125,-0.534537 0.15033,-0.334087 0.15033,-1.269532 0.15033,-1.269532 0,0 0.31739,0.718288 0.90204,0.785106 0.58465,0.06682 0.86862,1.553504 0.86862,1.553504 0,0 0.38421,-0.91874 0.20046,-1.603619 -0.18375,-0.684876 -0.0668,-2.572467 0.21716,-2.856441 0.28397,-0.283975 0.71828,-0.785104 0.66817,-1.520095 -0.0501,-0.734992 1.08578,-1.553507 1.08578,-1.553507 0,0 0.96885,1.620322 0.35079,2.956672 -0.61806,1.336346 -0.71829,2.171565 -0.33408,2.672693 0.38419,0.501132 1.62032,0.91874 1.62032,0.91874 0,0 -0.81852,-0.718286 -0.81852,-1.453277 0,-0.734992 0.90204,-1.921 0.90204,-1.921 0,0 -0.53454,1.135894 0.11693,2.054633 0.65147,0.918739 2.03793,0.818515 2.03793,0.818515 0,0 -1.55351,-0.684879 -1.40317,-1.419871 0.15034,-0.734991 1.20272,-1.419868 1.28624,-2.00452 0.0835,-0.584653 0.0501,-1.436574 0.0501,-1.436574 0,0 0.81851,0.484426 0.93544,1.35305 0.11693,0.868627 -0.20045,1.553507 -0.20045,1.553507 0,0 0.63477,-0.384202 0.66818,-1.069079 0.0334,-0.684879 0,-1.95441 -0.33409,-2.255088 -0.33409,-0.300678 0.11773,-2.757824 0.11773,-2.757824 0,0 0.0591,2.220611 0.61422,2.409598 0.55515,0.188989 0.93313,0.165364 0.93313,0.767765 0,0.602398 -0.17718,1.098492 -0.17718,1.098492 0,0 0.33073,-0.0118 0.48428,-0.413412 0.15355,-0.401598 0.29529,-1.051245 0.16537,-1.346538 -0.12993,-0.295294 -0.54335,-0.637837 -0.76777,-0.67327 -0.22442,-0.03543 -0.47247,-0.637836 -0.37798,-0.874072 0.0945,-0.236233 0.42523,-0.803198 0.41342,-1.523714 -0.0118,-0.720519 0.27167,-1.027623 0.41341,-0.79139 0.14174,0.236236 0.34254,0.555154 0.25986,0.968565 -0.0827,0.413412 0.28348,0.897695 0.28348,0.897695 0,0 -0.11812,-0.73233 -0.0118,-0.992188 0.1063,-0.25986 0.21261,-0.566965 0.0709,-0.874072 -0.14174,-0.307105 -0.54334,-1.984375 -0.22443,-2.090679 0.31892,-0.106307 0.68509,-0.153554 0.82683,0.2008 0.14174,0.354351 0.56696,0.637834 0.87407,0.661458 0.3071,0.02363 0.82682,-0.2008 0.82682,-0.2008 0,0 -0.59059,0.04725 -0.81501,-0.165365 -0.22443,-0.212611 -0.0945,-0.874069 -0.0945,-0.874069 0,0 0.0827,-0.38979 0.0827,-0.87407 0,-0.484282 0.0709,-0.614211 0.25986,-0.472471 0.18898,0.141742 0.0354,0.696894 0.0354,0.696894 0,0 0.24805,-0.200801 0.28348,-0.377976 0.0354,-0.177176 -0.0236,-0.602401 -0.17717,-0.685083 -0.15355,-0.08268 -1.22842,-0.767763 -1.35836,-1.370163 -0.12993,-0.602399 -1.55428,-2.939188 -0.88611,-3.490431 0.66818,-0.551241 1.16931,-0.918737 1.5201,-0.684877 0.35079,0.23386 1.01896,0.434314 1.01896,0.434314 0,0 -0.93544,-0.68488 -1.03567,-0.952149 -0.10022,-0.267268 -1.5702,-0.65147 -1.67043,-0.868627 -0.10023,-0.217156 -1.62032,-2.037929 -1.08578,-2.255086 0.53454,-0.217156 1.08578,-0.35079 1.21941,-0.06682 0.13364,0.283975 0.71829,0.267269 0.71829,0.267269 0,0 -0.50113,-0.367493 -0.50113,-0.601355 0,-0.23386 -0.96885,-0.35079 -1.33635,-0.217157 -0.36749,0.133636 -1.40316,-0.100224 -0.91874,-0.250566 0.48443,-0.150339 0.51784,-0.684876 1.05238,-0.567946 0.53454,0.11693 0.70158,0.200451 1.26953,0.03341 0.56795,-0.167045 1.08578,-0.968852 1.83748,-1.102487 0.75169,-0.133636 1.5535,-0.200451 1.5535,-0.200451 0,0 -1.30294,-0.367496 -1.9377,-0.05012 -0.63477,0.317383 -1.38646,0.851921 -1.62032,0.935445 -0.23387,0.08352 -1.50339,-0.668176 -2.35532,-0.217157 -0.85192,0.451017 -1.33635,0.968851 -1.36975,0.501129 -0.0334,-0.46772 0.20045,-1.252826 0.56794,-1.319641 0.3675,-0.06682 0.35079,-0.634767 -0.15033,-0.68488 -0.50114,-0.05011 -0.70159,-0.7684 -1.41987,-0.918739 -0.71829,-0.150339 -1.77067,-0.08352 -1.75396,-0.283974 0.0167,-0.200451 0.11693,-0.851922 0.53454,-0.935443 0.41761,-0.08352 1.03567,0.08352 1.03567,0.08352 0,0 -0.28397,-0.417607 -0.73499,-0.417607 -0.45102,0 -0.735,-0.03341 -0.96886,0.167042 -0.23386,0.200453 -0.31738,0.668173 -0.60135,0.601358 -0.28398,-0.06682 -1.06908,-0.501132 -0.70158,-0.751697 0.36749,-0.250566 0.86862,-0.167042 0.83521,-0.601356 -0.0334,-0.434313 -0.50113,-0.484426 -0.50113,-0.484426 0,0 0.31738,0.183748 0.28398,0.367496 -0.0334,0.183748 -0.11693,0.35079 -0.3675,0.334087 -0.25056,-0.0167 -0.58465,-0.250566 -0.85192,-0.11693 -0.26727,0.133633 -1.9377,0.918739 -2.07134,0.01669 -0.13364,-0.902034 -0.90203,-0.734991 -0.80181,-1.102486 0.10023,-0.367496 0.3675,-0.618061 0.70158,-0.551244 0.33409,0.06682 0.78511,-0.23386 0.78511,-0.23386 0,0 -0.80181,0.11693 -1.00226,-0.01671 -0.20045,-0.133635 -0.51784,-0.26727 -0.80181,-0.08352 -0.28397,0.183748 -0.65147,1.336348 -0.88533,0.968852 -0.23386,-0.367495 0.0835,-0.734991 -0.21716,-1.035669 -0.30067,-0.300678 -1.20271,-0.434313 -1.20271,-0.434313 0,0 0.81851,0.400904 0.91874,0.684878 0.10023,0.283974 -0.0501,0.684878 -0.30068,0.584652 -0.25056,-0.100226 -1.1359,-0.417609 -1.1359,0.08352 0,0.50113 -1.46998,3.574727 -2.40542,3.006781 -0.93544,-0.567949 -1.18601,-0.801809 -0.96885,-1.269532 0.21715,-0.46772 0.83521,-0.517834 0.7684,-1.236119 -0.0668,-0.718287 -0.55125,-1.069078 -0.55125,-1.069078 0,0 0.30068,0.618061 0.15034,1.035669 -0.15034,0.417609 -0.90203,0.818511 -1.1693,0.918738 -0.26727,0.100227 -0.98556,0.935443 -0.98556,0.935443 0,0 -0.66817,-0.23386 -0.66817,-0.634765 0,-0.400905 0.31738,-0.567947 -0.11693,-1.286233 -0.43431,-0.718287 -0.86863,-0.684878 -0.86863,-0.684878 0,0 0.65147,0.701582 0.63477,1.102487 -0.0167,0.400902 -0.60136,0.718285 -0.60136,0.718285 0,0 -1.10249,-0.267269 -0.91874,-0.751694 0.18375,-0.484426 0.30068,-0.734991 0.15034,-1.018965 -0.15034,-0.283974 0.25057,-0.968852 0.25057,-0.968852 0,0 -0.71829,0.400904 -0.65147,0.88533 0.0668,0.484426 0.11693,0.918739 -0.0835,1.002261 -0.20046,0.08352 -2.40543,-0.05011 -2.6894,-0.367496 -0.28398,-0.317382 -2.33861,0.26727 -2.78963,0.01671 -0.45102,-0.250565 -1.40317,-0.851922 -1.40317,-1.085782 0,-0.233861 0,-0.751696 0.50114,-0.7684 0.50112,-0.0167 0.66817,0.400904 0.66817,0.400904 0,0 0.0668,-0.618061 -0.11693,-0.718287 -0.18375,-0.100226 -0.81851,-0.350791 -1.31964,-0.217156 -0.50114,0.133634 -0.78511,0.384199 -1.06908,-0.0167 -0.28398,-0.400904 -3.257354,-3.023486 -6.197317,-2.589173 -2.939965,0.434313 -3.942226,0.902034 -4.142679,0.133634 -0.200451,-0.768399 0.734991,-1.469982 -0.267269,-2.706104 -1.00226,-1.236121 -1.904296,-1.302938 -1.904296,-1.302938 0,0 1.570209,1.603617 1.570209,2.472243 0,0.868626 -0.935442,1.403165 -0.935442,1.403165 0,0 -1.469983,-0.534539 -1.33635,-1.102487 0.133636,-0.567948 0.467723,-0.7684 0.467723,-0.7684 0,0 -0.935442,0.100226 -1.069078,0.50113 -0.133636,0.400905 0.03341,1.436574 -0.167045,1.971113 -0.200451,0.534539 -0.133633,2.772922 -0.768397,3.340869 -0.634768,0.567948 -6.011069,4.89572 -5.963822,7.494307 0.04725,2.598586 -1.039435,4.393972 -2.55134,5.480653 -1.511904,1.086683 -3.401785,2.031621 -3.260043,4.299479 0.14174,2.267857 2.504091,3.638021 1.133928,4.393975 -1.370164,0.755952 -2.078869,1.748139 -2.740327,0.708705 -0.661458,-1.039434 -0.188989,-2.4096 -0.188989,-2.4096 0,0 -1.133928,1.27567 -0.803198,2.126117 0.330729,0.850445 1.08668,1.133928 0.850444,1.74814 -0.236233,0.614211 -5.433406,5.575149 -6.661829,7.039805 -1.228424,1.46466 -3.921504,4.157739 -5.149924,4.393975 -1.228424,0.236234 -2.787576,0.850445 -3.401788,0.236234 -0.614212,-0.614209 -0.566962,-1.464657 -0.566962,-1.464657 0,0 -1.13393,0.850448 -0.283483,1.984375 0.850445,1.133927 0.992188,1.606399 0.708705,1.795386 -0.283482,0.188989 -2.220611,-0.377976 -3.165552,0.0945 -0.944941,0.472469 -1.322916,1.22842 -1.322916,1.22842 0,0 1.937128,-1.08668 2.787576,-0.614209 0.850444,0.472469 0.803198,0.661459 0.803198,0.661459 0,0 -5.716889,3.496278 -6.80357,4.015996 -1.086683,0.519716 -4.771951,2.173362 -5.622396,2.315104 -0.850447,0.14174 -2.976562,-1.417412 -2.976562,-1.417412 0,0 0.944938,1.464659 1.842632,1.937128 0.897694,0.472472 0.992188,0.519719 0.992188,0.519719 0,0 -1.133928,0.850444 -1.984375,0.519715 -0.850445,-0.330729 -1.322917,-0.992187 -1.322917,-0.992187 0,0 0,1.322916 0.566965,1.559152 0.566965,0.236236 0.992188,0.425223 0.992188,0.425223 0,0 -3.638021,2.126117 -4.913691,4.393975 -1.27567,2.267857 -3.354539,4.11049 -3.779761,5.953125 -0.425225,1.842632 -1.322917,5.102677 -0.566965,7.465028 0.755952,2.362353 0.992187,2.126117 0.330729,3.921503 -0.661458,1.795389 -0.472472,4.393975 -0.803201,5.197173 -0.330729,0.803196 -1.41741,1.748136 -2.220608,2.173366 -0.803201,0.42522 0.330729,1.55915 0.330729,1.55915 0,0 -0.283482,-1.13393 0.425223,-1.27567 0.708705,-0.14174 1.842635,-0.51972 2.220611,0.51971 0.377975,1.03944 1.08668,3.96875 1.08668,3.96875 0,0 -0.708705,-1.32291 -1.464656,-1.5119 -0.755955,-0.18899 -1.370166,0.61421 -1.370166,0.61421 0,0 1.228423,-0.28348 1.748142,0.51972 0.519715,0.8032 1.700892,2.83482 1.984374,3.9215 0.283483,1.08668 1.74814,6.66183 2.126115,8.17374 0.377976,1.5119 -0.614211,3.77976 -0.330729,4.81919 0.283483,1.03944 1.086681,1.88988 1.086681,1.88988 0,0 -0.614209,-2.3151 -0.09449,-2.83482 0.519718,-0.51971 0.755951,-0.47247 0.755951,-0.47247 0,0 -0.377975,2.59859 0.141743,3.87426 0.519716,1.27567 2.315104,2.88207 2.315104,2.88207 l -0.566965,-1.27567 c 0,0 0.897694,0.94494 0.850448,1.41741 -0.04725,0.47247 -0.755955,1.70089 -0.141743,2.4096 0.614212,0.7087 1.984375,1.65364 2.362351,2.92931 0.377978,1.27567 0.661458,2.55134 0.661458,3.2128 0,0.66146 -0.0091,1.23215 -0.0091,1.23215 z"
       style="fill:#ac939d;stroke:#000000;stroke-width:0.264583px;stroke-linecap:butt;stroke-linejoin:miter;stroke-opacity:1" />
  </g>
  <g
     transform="translate(-11.566388,3.1528)"
     style="display:inline"
     inkscape:label="4"
     id="layer6"
     inkscape:groupmode="layer">
    <path
       id="path1473"
       d="m 113.25546,31.805073 c 2.87315,0.801809 2.00452,1.069078 4.14268,0.801809 2.13816,-0.267269 2.80633,-0.801809 3.54132,-1.202714 0.73499,-0.400902 1.40317,-0.868624 1.40317,-0.868624 0,0 -0.13364,1.202711 -1.06908,1.737251 -0.93545,0.53454 -3.34087,1.469983 -4.14268,1.469983 -0.80181,0 -1.46998,0 -1.46998,0 0,0 0.46772,0.801809 1.40316,0.734991 0.93545,-0.06682 2.07134,-0.668173 2.60588,-0.400905 0.53454,0.267269 0.93544,1.069079 0.93544,1.069079 0,0 -0.80181,-0.467723 -1.67043,-0.200451 -0.86863,0.267268 -3.0736,0.734988 -3.67496,0.668173 -0.60135,-0.06682 -1.46998,-0.133636 -1.46998,-0.133636 0,0 0.93544,1.469983 2.13816,1.469983 1.20271,0 2.00452,0 2.00452,0 0,0 -1.46999,0.801809 -2.27179,0.601355 -0.80181,-0.200451 -1.80407,-0.601355 -1.80407,-0.601355 0,0 1.00226,0.935442 1.26953,1.870887 0.26727,0.935442 -0.46772,1.469983 -0.46772,1.469983 0,0 0.33408,-1.202714 -0.40091,-1.737254 -0.73499,-0.534538 -2.13816,-1.202712 -2.73951,-1.002261 -0.60136,0.200454 -1.20271,0.200454 -1.20271,0.200454"
       style="fill:none;stroke:#000000;stroke-width:0.264583px;stroke-linecap:butt;stroke-linejoin:miter;stroke-opacity:1" />
    <path
       id="path1475"
       d="m 91.205726,73.966842 c 0.334087,2.939965 1.469983,1.804069 1.00226,3.407685 -0.467722,1.603618 -0.868627,1.670436 -0.06682,2.873147 0.80181,1.202714 2.004521,1.403165 2.004521,1.403165 0,0 -1.403165,-1.469983 -1.202711,-2.271789 0.200451,-0.801809 0.46772,-1.870887 0.46772,-1.870887 0,0 0.935444,1.403164 0.935444,2.271791 0,0.868625 0.935443,1.336347 0.935443,1.336347 0,0 -0.133633,-1.937705 -0.46772,-2.806329 -0.334087,-0.868627 -0.935445,-2.539061 -1.33635,-2.873148 -0.400904,-0.334086 0.80181,-0.801809 1.33635,0.334087 0.534538,1.135896 0.734991,1.403165 1.269529,1.536798 0.53454,0.133636 0.442275,0.08291 0.442275,0.08291 0,0 -0.897694,-0.826823 -0.921316,-1.181174 -0.02363,-0.354354 -0.354354,-1.204801 -0.803201,-1.464659 -0.448847,-0.259858 -0.661459,-0.755952 -0.661459,-0.897694"
       style="fill:none;stroke:#000000;stroke-width:0.264583px;stroke-linecap:butt;stroke-linejoin:miter;stroke-opacity:1" />
    <path
       id="path1477"
       d="m 147.11744,70.454299 c 2.07133,-0.267269 3.07359,-0.06682 3.67495,-0.601355 0.60136,-0.534538 1.00226,-1.002261 1.67044,-0.601356 0.66817,0.400905 0.86862,1.00226 0.86862,1.00226 0,0 -1.10248,-0.734991 -1.43657,-0.534537 -0.33409,0.200451 -0.60136,0.868624 -0.93545,0.902033 -0.33408,0.03341 -0.90203,0.23386 -0.90203,0.23386 0,0 1.67044,0.53454 2.00452,0.200453 0.33409,-0.334086 0.33409,-0.734991 0.33409,-0.734991 0,0 0.60135,0.334087 0.43431,0.7684 -0.16704,0.434314 -0.73499,0.801807 -1.00226,0.768401 -0.26727,-0.03341 -1.00226,-0.167045 -1.00226,-0.167045 0,0 -0.20045,0.734991 0.30068,0.935442 0.50113,0.200454 0.56795,0.734992 0.56795,0.734992 0,0 -0.7684,-0.601356 -1.06908,-0.501129"
       style="fill:none;stroke:#000000;stroke-width:0.264583px;stroke-linecap:butt;stroke-linejoin:miter;stroke-opacity:1"
       transform="translate(-21.166672,-34.77382)" />
    <path
       id="path1480"
       d="m 123.59821,40.396204 c 1.7009,2.69308 2.17337,2.456847 1.98438,4.252233 -0.18899,1.795386 -0.70871,1.559152 0.0945,2.409597 0.8032,0.850448 2.26786,0.944941 2.26786,0.944941 0,0 -2.17336,0.614212 -3.1183,-0.330729 -0.94494,-0.944941 -0.33073,-1.748139 -0.42523,-3.118302 -0.0945,-1.370164 -0.89769,-2.031622 -0.89769,-2.031622 0,0 -0.51972,0.661458 -0.37798,1.511903 0.14174,0.850448 0.56697,1.086681 0.56697,1.086681 0,0 -1.03944,-0.04725 -1.18118,-0.614209 -0.14174,-0.566965 0.14174,-1.653646 -0.14174,-2.031624"
       style="fill:none;stroke:#000000;stroke-width:0.264583px;stroke-linecap:butt;stroke-linejoin:miter;stroke-opacity:1" />
    <path
       id="path1482"
       d="m 107.04144,44.500376 c 3.34087,0.133636 1.73726,-0.935445 4.54359,0.534538 2.80633,1.469982 2.67269,2.004523 2.53906,3.474505 -0.13364,1.469983 0.26727,1.737252 1.60361,2.539061 1.33635,0.801807 2.53906,0.668174 2.53906,0.668174 0,0 -1.61386,1.011023 -2.93678,0.396814 -1.32291,-0.614212 -2.83482,-1.13393 -2.83482,-2.362354 0,-1.22842 0.0945,-2.220608 -0.89769,-2.598584 -0.99219,-0.377978 -1.98437,-0.425225 -1.98437,-0.425225 0,0 0.37797,0.283483 0.94493,1.13393 0.56697,0.850445 0.33073,2.126115 0.33073,2.126115 0,0 -0.51971,-1.511903 -0.89769,-1.748139 -0.37797,-0.236236 -1.46466,-0.141743 -1.88988,-0.472472"
       style="fill:none;stroke:#000000;stroke-width:0.264583px;stroke-linecap:butt;stroke-linejoin:miter;stroke-opacity:1" />
    <path
       id="path1484"
       d="m 104.41592,47.29427 c 1.6064,1.464657 2.26786,2.173364 2.92932,2.220611 0.66146,0.04725 1.98437,0.09449 2.26786,0.708705 0.28348,0.614212 1.22842,1.322917 1.22842,1.322917 0,0 -1.65365,-0.236236 -2.26786,-0.755952 -0.61421,-0.519718 -1.70089,-0.661458 -2.59859,-0.661458"
       style="fill:none;stroke:#000000;stroke-width:0.264583px;stroke-linecap:butt;stroke-linejoin:miter;stroke-opacity:1" />
    <path
       sodipodi:nodetypes="csscssc"
       id="path1486"
       d="m 88.540922,27.686756 c 0.850445,-1.181176 1.464657,-0.472471 1.464657,-1.889881 0,-1.417411 -0.519716,-2.504093 -0.425223,-2.929316 0.09449,-0.425223 0.614212,-1.181175 0.614212,-1.181175 0,0 -0.236236,0.566964 0.04725,1.228422 0.283482,0.661459 0.429371,1.005816 0.412668,1.256382 -0.0167,0.250565 0.367495,1.069078 0.367495,1.069078"
       style="fill:none;stroke:#000000;stroke-width:0.264583px;stroke-linecap:butt;stroke-linejoin:miter;stroke-opacity:1" />
    <path
       id="path1488"
       d="m 65.106398,71.24851 c 0.566965,2.4096 1.653646,3.779763 1.181174,4.724704 -0.472469,0.944941 0.708708,2.409598 0.708708,2.409598 0,0 -0.330729,-1.842636 0.188987,-2.598587 0.519718,-0.755952 -0.377976,-2.598587 -0.377976,-2.598587 0,0 1.842635,-0.377976 2.078868,0.614212 0.236236,0.992187 0.0945,1.559152 0.0945,1.559152 0,0 0.803198,-0.519718 0.661458,-1.41741 -0.141742,-0.897694 -1.464659,-1.795388 -1.889881,-1.842635 -0.425223,-0.04725 -0.850448,-0.188989 -0.850448,-0.519718"
       style="fill:none;stroke:#000000;stroke-width:0.264583px;stroke-linecap:butt;stroke-linejoin:miter;stroke-opacity:1" />
    <path
       id="path1490"
       d="m 78.309972,87.330316 c 0.601355,3.274052 0.133633,3.87541 0.801806,5.011303 0.668176,1.135896 1.870888,2.33861 1.603619,3.34087 -0.267269,1.002261 -0.734992,1.469983 -0.734992,1.469983 0,0 1.202714,-0.200451 1.403165,-1.202714 0.200451,-1.00226 -0.06682,-1.804069 -0.467722,-2.405425 -0.400905,-0.601355 -0.601356,-2.071338 -0.601356,-2.071338 0,0 0.935442,0.06682 1.202714,1.269529 0.267269,1.202714 2.00452,2.605879 2.00452,2.605879 0,0 -1.135896,-2.271792 -1.202714,-2.739512 -0.06682,-0.467723 -0.668173,-1.937705 -1.269529,-2.138156"
       style="fill:none;stroke:#000000;stroke-width:0.264583px;stroke-linecap:butt;stroke-linejoin:miter;stroke-opacity:1" />
    <path
       id="path1492"
       d="m 48.442602,73.298668 c -1.937706,1.670434 -1.80407,1.80407 -3.474503,2.004521 -1.670437,0.200451 -2.138157,0.06682 -2.806333,1.069078 -0.668173,1.00226 -0.534537,1.737251 -0.534537,1.737251 0,0 1.069078,-1.202711 1.937705,-1.5368 0.868624,-0.334087 2.605876,-0.200451 2.605876,-0.200451 0,0 -3.274052,2.672696 -4.543581,2.739511 -1.269532,0.06682 -2.004521,-0.334086 -2.004521,-0.334086 0,0 0.06682,1.737251 1.403165,1.469982 1.336347,-0.267269 2.873148,-0.200451 3.541321,-0.868624 0.668173,-0.668176 2.00452,-1.002263 2.00452,-1.002263 0,0 0.601356,1.469983 0.06682,1.937705 -0.53454,0.467723 -2.071338,0.200451 -2.204974,0.868627 -0.133636,0.668174 0.467723,1.737252 0.467723,1.737252 0,0 0,-1.135896 0.334086,-1.33635 0.334087,-0.200451 1.737252,-0.06682 2.004521,-0.601355 0.267271,-0.534538 0.601358,-1.80407 0.601358,-2.405425 0,-0.601356 -0.334087,-1.670434 0.267269,-2.004523"
       style="fill:none;stroke:#000000;stroke-width:0.264583px;stroke-linecap:butt;stroke-linejoin:miter;stroke-opacity:1" />
    <path
       id="path1494"
       d="m 93.265624,97.045385 c 0.566965,2.929315 0.755951,3.590775 0.472469,4.724705 -0.28348,1.13393 -0.09449,1.88988 -0.09449,1.88988 0,0 1.606399,-2.55134 1.41741,-3.59077 -0.188987,-1.03944 0.377978,-2.173368 0.377978,-2.173368 0,0 1.41741,0.850448 1.41741,1.889882 0,1.039436 1.41741,1.700896 1.41741,1.700896 0,0 -0.850445,-1.32292 -0.661458,-2.362355"
       style="fill:none;stroke:#000000;stroke-width:0.264583px;stroke-linecap:butt;stroke-linejoin:miter;stroke-opacity:1" />
    <path
       id="path1496"
       d="m 101.67559,101.29762 c 1.98438,2.07887 1.51191,2.07887 2.55134,2.64583 1.03944,0.56697 1.2109,0.7928 1.2109,0.7928 0,0 -0.70158,-1.53681 -1.33635,-1.93771 -0.63477,-0.4009 -0.93544,-0.56795 -0.96885,-1.1693 -0.0334,-0.60136 -0.50113,-1.23612 -0.50113,-1.23612"
       style="fill:none;stroke:#000000;stroke-width:0.264583px;stroke-linecap:butt;stroke-linejoin:miter;stroke-opacity:1" />
    <path
       id="path1498"
       d="m 82.118561,111.98593 c 1.80407,1.1359 1.80407,1.00226 2.672697,2.33861 0.868624,1.33635 0.601355,2.6727 1.670434,3.00678 1.069078,0.33409 2.405424,0 2.405424,0 0,0 -2.138156,-0.33408 -2.138156,-1.13589 0,-0.80181 0.935445,-2.73952 0.601356,-3.00679 -0.334087,-0.26727 0.28929,-1.30769 0.643641,-0.74072 0.354354,0.56696 0.259858,3.00018 0.259858,3.00018 0,0 0.661458,-1.48828 0.637836,-2.12612 -0.02363,-0.63783 -0.519718,-2.00799 -0.519718,-2.00799"
       style="fill:none;stroke:#000000;stroke-width:0.264583px;stroke-linecap:butt;stroke-linejoin:miter;stroke-opacity:1" />
    <path
       id="path1500"
       d="m 95.108259,121.75558 c 1.086681,0.8032 1.464656,0.99219 1.606399,1.79539 0.14174,0.8032 -0.04725,2.03162 -0.04725,2.03162 0,0 0.803201,-0.66146 0.897694,-1.6064 0.09449,-0.94494 -0.09449,-1.74814 -0.09449,-1.74814 0,0 1.27567,0.75595 1.228423,1.5119 -0.04725,0.75596 0.377976,1.22843 0.377976,1.22843 0,0 0.09449,-0.99219 0.188986,-1.32292 0.0945,-0.33073 0.141743,-1.46466 -0.283482,-1.70089"
       style="fill:none;stroke:#000000;stroke-width:0.264583px;stroke-linecap:butt;stroke-linejoin:miter;stroke-opacity:1" />
    <path
       id="path1502"
       d="m 70.091434,112.85456 c 2.605876,2.53906 1.870885,2.93996 3.608136,3.0736 1.737254,0.13363 2.873148,0.13363 3.140419,1.26953 0.267269,1.13589 -0.200454,2.40542 -0.200454,2.40542 0,0 -0.267268,-2.33861 -1.202711,-2.33861 -0.935445,0 -2.338609,0.40091 -3.140419,-0.20045 -0.801806,-0.60136 -2.00452,-0.73499 -2.00452,-0.73499 0,0 -0.200451,2.00452 1.202714,2.47224 1.403165,0.46772 2.138156,0.60136 2.138156,0.60136 0,0 -2.605879,0.26727 -3.407688,-0.20045 -0.801809,-0.46772 -0.935442,-2.47225 -0.935442,-2.47225"
       style="fill:none;stroke:#000000;stroke-width:0.264583px;stroke-linecap:butt;stroke-linejoin:miter;stroke-opacity:1" />
    <path
       id="path1504"
       d="m 75.837729,132.2316 c 1.336347,1.20271 2.071338,1.9377 2.338607,3.00678 0.267269,1.06908 -0.267269,2.33861 0.868627,3.0736 1.135893,0.73499 1.737252,0.73499 1.737252,0.73499 0,0 -1.403165,-1.5368 -1.403165,-2.07134 0,-0.53454 0.46772,-1.5368 0.46772,-1.5368 0,0 1.202713,0.46772 1.403164,1.26953 0.200454,0.80181 0.601359,2.13816 1.269532,2.33861 0.668173,0.20045 1.603616,0.13364 1.603616,0.13364 0,0 -1.737252,-1.46999 -1.536798,-2.07134"
       style="fill:none;stroke:#000000;stroke-width:0.264583px;stroke-linecap:butt;stroke-linejoin:miter;stroke-opacity:1" />
    <path
       id="path1506"
       d="m 85.593064,133.43431 c 2.071341,0.80181 3.073601,1.20271 3.674957,2.33861 0.601356,1.13589 0.400905,2.47224 0.400905,2.47224 0,0 -1.069078,-1.87088 -2.204974,-2.40542 -1.135896,-0.53454 -1.80407,-0.46773 -1.80407,-0.46773 0,0 -0.06682,0.86863 0.868627,1.33635 0.935443,0.46772 1.670434,1.20271 1.670434,1.20271 0,0 -2.185736,-0.68209 -2.516465,-0.72934 -0.330729,-0.0472 -0.543341,-0.77957 -0.543341,-0.77957"
       style="fill:none;stroke:#000000;stroke-width:0.264583px;stroke-linecap:butt;stroke-linejoin:miter;stroke-opacity:1" />
    <path
       id="path1508"
       d="m 49.231399,114.62128 c 2.078868,3.87425 2.078868,5.38616 3.77976,6.04762 1.700893,0.66146 3.874257,2.74032 3.874257,2.74032 0,0 -1.41741,-0.47246 -3.496281,-0.85044 -2.078868,-0.37798 -3.118302,-2.26786 -3.118302,-2.26786 0,0 0,2.07887 -1.322917,1.98438 -1.322917,-0.0945 -2.409597,-0.61421 -2.409597,-0.61421 0,0 2.078868,0.28348 2.456844,-0.61422 0.377976,-0.89769 -0.236236,-2.22061 -0.236236,-2.22061"
       style="fill:none;stroke:#000000;stroke-width:0.264583px;stroke-linecap:butt;stroke-linejoin:miter;stroke-opacity:1" />
    <path
       id="path1510"
       d="m 56.838169,133.28385 c 0.992188,2.69308 1.039434,3.96875 1.842633,4.39397 0.803201,0.42523 1.653646,0.56697 1.653646,0.56697 0,0 -0.61421,0.7087 -1.322917,0.42522 -0.708705,-0.28348 -1.275667,-0.56696 -1.275667,-0.56696 0,0 0.803198,1.55915 1.795385,2.4096 0.992188,0.85044 -0.14174,2.22061 -0.14174,2.22061 0,0 0,-1.37017 -0.377978,-1.79539 -0.377976,-0.42522 -1.370163,-1.18117 -1.748139,-2.07887 -0.377976,-0.89769 -0.614212,-2.55134 -0.614212,-2.55134 0,0 -0.14174,1.6064 -0.661458,2.22061 -0.519716,0.61421 -1.322917,0.56697 -1.322917,0.56697 0,0 1.181177,-0.61421 1.13393,-1.55916 -0.04725,-0.94494 -0.519718,-1.79538 -0.519718,-1.79538"
       style="fill:none;stroke:#000000;stroke-width:0.264583px;stroke-linecap:butt;stroke-linejoin:miter;stroke-opacity:1" />
    <path
       id="path1512"
       d="m 44.36674,125.95076 c 1.135896,1.33635 2.204974,2.47225 2.33861,3.60814 0.133633,1.1359 -0.801809,1.67044 0,3.14042 0.801809,1.46998 1.937703,1.67043 1.937703,1.67043 0,0 -1.536798,-1.80407 -1.336347,-2.40542 0.200453,-0.60136 0.734991,-1.60362 0.734991,-1.60362 0,0 2.539061,3.74177 2.405425,4.94449 -0.133633,1.20271 -1.00226,2.80633 -0.06682,3.54132 0.935445,0.73499 1.603618,0.4009 1.603618,0.4009 0,0 -1.202713,-0.53454 -0.868627,-1.13589 0.33409,-0.60136 0.267272,-1.06908 0.935445,-0.60136 0.668174,0.46772 0.868625,1.5368 0.868625,1.5368 0,0 0.668176,-1.60362 0.133635,-2.07134 -0.534537,-0.46772 -1.603615,-0.73499 -1.469982,-1.9377 0.133636,-1.20271 -0.868625,-2.60588 -0.868625,-2.60588 0,0 1.269529,0.73499 1.937703,0.66817 0.668173,-0.0668 1.737251,-0.26727 1.737251,-0.26727 0,0 -2.00452,-0.46772 -2.138156,-0.73499 -0.133633,-0.26727 -1.804069,-0.53454 -1.870887,-0.93544"
       style="fill:none;stroke:#000000;stroke-width:0.264583px;stroke-linecap:butt;stroke-linejoin:miter;stroke-opacity:1" />
  </g>
</svg>
