<svg height="64" viewBox="0 0 64 64" width="64" xmlns="http://www.w3.org/2000/svg"><path d="m60.35 35.59c0-2.34-.36-16.29-.84-22s-2.15-6.75-3.51-7.59-6.47-.48-11.74-.48h-24.69c-7.57-.05-11.85.19-14.07 1.38s-2 4.49-2 8 .72 13.77.66 18.44.35 8 .9 9.52c.84 2.4 3.77 2.58 5.63 2.88s14.25-.3 14.85-.12.36 4.13.48 4.73-5.75-.06-6.29.3-.42 3.89-.36 4.37a14.66 14.66 0 0 0 1.92 3.41c.36.3 1.26.24 5.21.18s16.83-.24 18-.72-.24-5.69-.42-7.12-5.21-1.08-5.92-1.26-.3-3.65-.3-3.65 2.63-.06 4.79 0 10.78 0 14.79-1.2 2.91-6.74 2.91-9.07zm-18.2 15.71c.16.36.56 3.83.2 3.91s-13.74.2-14.85.16-6.35.2-6.51 0c-.32-.41 0-3.59.12-3.63s4.71 0 5.59-.24 1-.72.92-1.48-.52-5.59-.12-6 9.1-.52 9.1 0-.6 6.24.4 6.6 5 .32 5.15.68zm16.65-21c0 3.83-.12 6.7-1.24 8.58s-3.36 3.12-6.83 3.39-24.83.2-29.14.32-13.1 1-15.13-1.47a7.12 7.12 0 0 1 -1.08-3.4c-.08-1.19 0-12.29-.28-17.4s-.48-10 .36-11.42 3-2.2 5.79-2.4 11.26 0 17.44 0 15.41 0 18.33.2 7.54.2 8.58.64 1.92 1.4 2.52 8a142.51 142.51 0 0 1 .68 14.96zm-46.35-21.56c-.12-.52-2.64-.48-4.24-.16s-2 2.2-2 3.27a9.48 9.48 0 0 0 .48 3.32.61.61 0 0 0 .92-.08c.2-.28 0-1.28 0-1.8s-.08-2.59.59-3.19 3.24-.24 3.84-.28.53-.56.41-1.08zm43.23 28.14c-.4-.07-1 .92-1.68 1.48s-2.59 1-2.75 1.44a.78.78 0 0 0 .44 1c.36.2 1.28-.4 3.19-1.48s1.2-2.32.8-2.44zm-2.39-6.62c-.32-5.15-1-15.29-1-17.45s-2.36-2-8.19-1.91-19.28 0-25.43.08-6.86.35-7.58.91c-.92.72-.56 4.51-.4 7.39s.44 15.57.44 16.61a3 3 0 0 0 1.24 2.47c.64.32 7.9 0 15.17 0s20.28-.32 21.24-.28 3.55.16 4.43-.48.4-2.19.08-7.34zm-1.24 6.43c-.4.08-10.26.15-20.64.35s-17.77.44-18.33 0-.59-9.86-.95-13.25-.64-10 .12-10.74c.38-.38 2.35-1 5.59-.92s15.16-.13 21.31-.13 10.86.16 11.18.52a9.19 9.19 0 0 1 .67 3.13c.08 1 .88 12.41 1.2 16s.25 4.96-.15 5.04zm-36.61-8.11c-.56.88 4.28 6.25 4.51 6 .64-.6-3.11-5.67-3.39-5.95s-.56-.93-1.12-.05zm2.08-5.27c-.36.12-.52.2-.52.48a18.22 18.22 0 0 0 2.59 2.95c.88.88 7.39 8.11 7.75 8.11s0-.64-.64-1.36-8.95-10.26-9.18-10.18zm15.17 8.35c-1-1-11.7-12.94-12.18-13.18s-.94.74-.76 1 2.88 2.75 4.51 4.19 8.91 9.9 9.5 9.78-.04-.8-1.07-1.79zm3.91-2.08c-1.16-1.12-11.9-12.86-12.6-13.14s-.71.52-.48.8 2.36 2.32 3.64 3.6 10.44 10.62 10.84 10.62-.24-.76-1.4-1.88zm-6.71-14c-.48-.52-1 .52-.76.79s2.92 3.2 4.95 5.59 8.67 10.62 9.11 10.38.24 0-2.2-3.11-10.62-13.1-11.1-13.62zm6.19.4c-.36-.12-.64.36-.52.71 0 0 2.76 2.92 3.47 3.72s8.15 10.06 8.51 9.78.12-.44-1.16-2-9.94-12.06-10.3-12.19zm5.92-1.29c-.52-.16-.92.8-.68 1s6.95 8.1 7.11 8.14.32 0 .2-.56-6.16-8.42-6.63-8.58z" fill="#1d1d1b"/></svg>