<svg height="64" viewBox="0 0 64 64" width="64" xmlns="http://www.w3.org/2000/svg"><path d="m60.08 31.91c-.24-4.79-1.75-25.19-1.95-25.47s-12.3-.08-21.08.24-25.43 1.32-25.87 1.32-7.43 8-7.43 8.5c0 .76.48 11.46.52 19.4s-.36 16.85-.04 17.1 11.3 0 11.62 0 0 4.23.52 4.55 11.46-.12 12.58-.36 3.87-4.35 4.27-4.63 9.42.6 9.86.6 1.63-1 4.71-4 12.01-10.66 12.21-11.06.32-1.4.08-6.19zm-8.06.6c-.28.48-6 7-7.51 9s-2.19 2.64-2.79 2.84-11.5-.2-12.14-.16a2.5 2.5 0 0 0 -1.71 1.19 53.63 53.63 0 0 1 -3.79 4.52c-.2 0-1-6.35-1.28-6.59s-2.6-.26-3.8-.31-3 .44-3.19.2-.48-13.61-.68-18.09-.48-8.7-.2-9.14c.17-.25 3.44-.48 6.23-.6s8.58-.32 17.13-.8 12.57-1.15 13-.67.92 13.61.92 15.84.09 2.26-.21 2.77zm-25.51-9.34c-1 .56-.8 10.42-.16 11s5.07.87 5.55.4.52-10.34-.08-11.3-4.82-.37-5.31-.1zm11.9 0c-.16.6-.08 10.66.08 11.3s4.35.67 4.91.16.52-10.54 0-11.26-4.86-.65-4.99-.16z" fill="#1d1d1b"/></svg>