<?xml version="1.0" encoding="UTF-8" standalone="no"?>
<svg
   xmlns:dc="http://purl.org/dc/elements/1.1/"
   xmlns:cc="http://creativecommons.org/ns#"
   xmlns:rdf="http://www.w3.org/1999/02/22-rdf-syntax-ns#"
   xmlns:svg="http://www.w3.org/2000/svg"
   xmlns="http://www.w3.org/2000/svg"
   xmlns:sodipodi="http://sodipodi.sourceforge.net/DTD/sodipodi-0.dtd"
   xmlns:inkscape="http://www.inkscape.org/namespaces/inkscape"
   sodipodi:docname="ChickenLaptop.svg"
   width="500mm"
   height="500mm"
   viewBox="0 0 500 500"
   version="1.1"
   id="svg8"
   inkscape:version="1.0 (4035a4fb49, 2020-05-01)">
  <defs
     id="defs2" />
  <sodipodi:namedview
     inkscape:window-maximized="0"
     inkscape:window-y="16"
     inkscape:window-x="15"
     inkscape:window-height="970"
     inkscape:window-width="1555"
     inkscape:snap-global="false"
     id="base"
     pagecolor="#ffffff"
     bordercolor="#666666"
     borderopacity="1.0"
     inkscape:pageopacity="0.0"
     inkscape:pageshadow="2"
     inkscape:zoom="0.1767767"
     inkscape:cx="790.33996"
     inkscape:cy="584.38679"
     inkscape:document-units="mm"
     inkscape:current-layer="layer5"
     inkscape:document-rotation="0"
     showgrid="false"
     inkscape:showpageshadow="false" />
  <metadata
     id="metadata5">
    <rdf:RDF>
      <cc:Work
         rdf:about="">
        <dc:format>image/svg+xml</dc:format>
        <dc:type
           rdf:resource="http://purl.org/dc/dcmitype/StillImage" />
        <dc:title></dc:title>
      </cc:Work>
    </rdf:RDF>
  </metadata>
  <g
     style="display:none"
     inkscape:label="Base"
     id="layer3"
     inkscape:groupmode="layer" />
  <g
     inkscape:label="1"
     id="layer5"
     inkscape:groupmode="layer">
    <path
       sodipodi:nodetypes="cccccccccccscc"
       id="path862"
       d="m 244.81888,92.074351 0.29995,190.360729 21.62613,0.0772 0.009,-8.20446 36.24464,-0.0907 0.16466,7.79528 195.86085,0.0945 0.0118,-7.63797 0.95855,-0.006 -0.0149,-199.53649 -252.35439,0.07545 c 0,0 -3.107,-0.367496 -3.00678,3.073598 0.10023,3.441097 0.20045,13.998242 0.20045,13.998242 z"
       style="fill:#1a1a1a;stroke:#000000;stroke-width:0.264583px;stroke-linecap:butt;stroke-linejoin:miter;stroke-opacity:0" />
    <path
       sodipodi:nodetypes="ccccc"
       id="path864"
       d="m 249.45905,83.647522 0.18821,171.667548 250.34305,0.17949 -0.0183,-171.998062 z"
       style="fill:#ececec;stroke:#000000;stroke-width:0.264583px;stroke-linecap:butt;stroke-linejoin:miter;stroke-opacity:0" />
    <path
       id="path866"
       d="m 197.68155,397.63094 -1.86626,4.3231 c 0,0 -3.14193,5.45703 3.18917,5.45703 6.3311,0 10.81957,2.92934 14.55209,2.88208 3.73251,-0.0473 286.44289,-0.17348 286.44289,-0.17348 V 277.7799 l -0.74723,0.0161 -0.0164,4.70461 -196.18854,-0.0496 -0.11549,-4.57753 -35.93271,0.10525 v 4.75906 l -20.68501,-0.11692 c 0,0 0.11693,1.95273 0.0351,2.13982 -0.0819,0.18709 -0.4911,0.40926 -0.74835,0.44434 -0.25725,0.0351 -0.49111,-0.1637 -0.72497,0.43265 -0.23386,0.59634 -47.19413,111.99331 -47.19413,111.99331 z"
       style="fill:#333333;stroke:#000000;stroke-width:0.264583px;stroke-linecap:butt;stroke-linejoin:miter;stroke-opacity:0" />
  </g>
  <g
     inkscape:label="2"
     id="layer6"
     inkscape:groupmode="layer">
    <path
       id="path885"
       d="m 236.00833,347.92708 18.52083,-51.06458 h 245.44237 v 50.8 z"
       style="fill:#4d4d4d;stroke:#000000;stroke-width:0.264583px;stroke-linecap:butt;stroke-linejoin:miter;stroke-opacity:0" />
    <path
       id="path887"
       d="m 315.89921,354.15884 -8.51254,43.8723 130.96208,0.28062 -3.08697,-44.15292 z"
       style="fill:#4d4d4d;stroke:#000000;stroke-width:0.264583px;stroke-linecap:butt;stroke-linejoin:miter;stroke-opacity:0" />
    <path
       id="path889"
       d="m 266.98112,274.53828 0.0164,3.20807 35.86758,-0.0496 -0.0331,-3.24114 z"
       style="fill:#808080;stroke:#000000;stroke-width:0.264583px;stroke-linecap:butt;stroke-linejoin:miter;stroke-opacity:0" />
    <path
       id="path891"
       d="m 499.98862,277.80329 v -3.3559 l -0.90038,0.0117 -0.0175,3.30329 z"
       style="fill:#808080;stroke:#000000;stroke-width:0.264583px;stroke-linecap:butt;stroke-linejoin:miter;stroke-opacity:0" />
  </g>
  <g
     inkscape:label="4"
     id="layer8"
     inkscape:groupmode="layer">
    <path
       id="path901"
       d="m 241.89531,311.94375 c -0.39688,3.0427 -0.66146,5.88698 -0.46302,6.74687 0.19844,0.8599 -0.46302,1.5875 1.71979,0.66146 2.18281,-0.92604 10.91406,-6.68073 12.89844,-6.68073 1.98437,0 7.01146,-2.38125 7.01146,-2.38125 0,0 0.19843,-0.92604 0.99218,-1.32292 0.79375,-0.39687 1.98438,0.39688 2.57969,0 0.59531,-0.39687 1.5875,-3.24114 1.38906,-4.36562 -0.19843,-1.12448 -0.85989,-2.31511 0.59532,-2.24896 1.4552,0.0661 5.62239,-0.52917 6.01927,-0.99219 0.39687,-0.46302 1.32291,-0.19843 -0.79375,-1.19062 -2.11667,-0.99219 -4.29948,-1.98438 -4.23334,-2.64584 0.0661,-0.66145 -0.13229,-2.3151 0.99219,-1.91822 1.12448,0.39687 4.96094,0.0661 5.88698,-0.39688 0.92604,-0.46302 3.37344,-1.19062 2.91042,-1.85208 -0.46302,-0.66146 -6.08542,-0.99219 -7.14375,-1.32292 -1.05834,-0.33073 -2.71198,-4.43177 -4.96094,-5.88698 -2.24896,-1.45521 -5.88698,-4.03489 -7.67292,-4.43177 -1.78593,-0.39687 -3.50573,-0.13229 -3.50573,-0.13229 l -14.55208,27.7151 c 0,0 0.33073,0.79375 0.33073,1.32292 0,0.52917 0,1.32292 0,1.32292 z"
       style="fill:#c83737;stroke:#000000;stroke-width:0.264583px;stroke-linecap:butt;stroke-linejoin:miter;stroke-opacity:0" />
    <path
       id="path909"
       d="m 88.56927,302.88177 c 0,0 10.31875,14.81666 11.1125,17.99166 0.79375,3.175 3.175,6.08542 1.5875,8.40052 -1.5875,2.31511 -6.283855,3.175 -7.540625,5.6224 -1.256771,2.4474 -1.190625,4.29948 -1.190625,4.29948 0,0 1.124479,-1.38906 1.785937,-1.38906 0.661458,0 1.322917,0.85989 3.042708,0.52916 1.719792,-0.33073 6.416145,-5.15937 7.209895,-5.35781 0.79375,-0.19844 1.25677,1.91823 2.4474,2.71198 1.19062,0.79375 5.62239,0.79375 6.81302,1.52135 1.19062,0.72761 8.06979,2.24896 9.72344,2.38125 1.65364,0.1323 5.20335,-0.21386 5.6243,0.62805 0.42095,0.8419 1.77735,0.93543 4.11595,1.1693 2.33861,0.23386 7.0626,0.70156 8.60608,-0.37418 1.54348,-1.07577 3.64823,-2.10476 4.77076,-1.49672 1.12254,0.60804 3.1428,2.4548 8.96363,2.98397 5.82084,0.52917 7.87136,1.65365 10.45105,1.85208 2.57968,0.19844 11.04635,1.5875 12.10468,2.38125 1.05834,0.79375 1.78594,1.19063 1.78594,1.19063 0,0 0.79375,-2.97656 -1.65365,-4.63021 -2.44739,-1.65365 -4.29947,-1.85208 -2.97656,-2.3151 1.32292,-0.46302 9.525,-1.45521 10.78177,-1.25677 1.25677,0.19843 8.00365,-0.1323 8.20209,-0.59532 0.19843,-0.46302 2.51354,-2.44739 4.10104,-2.3151 1.5875,0.13229 3.57187,0.52917 3.57187,0.52917 0,0 -1.45521,-2.31511 -4.16718,-2.91042 -2.71198,-0.59531 -12.50157,-0.0661 -15.74271,-0.26458 -3.24115,-0.19844 -18.52084,-1.32292 -20.17448,-2.05053 -1.65365,-0.7276 -13.16302,-6.61458 -15.34584,-8.59895 -2.18281,-1.98438 -16.33802,-12.10469 -16.33802,-12.10469 l -16.6026,-0.92604 c 0,0 22.9526,16.99948 23.87865,18.25625 0.92604,1.25677 -5.22553,0.39687 -5.22553,0.39687 0,0 -3.37343,0.46302 -3.63802,-0.39687 -0.26458,-0.8599 0,-3.63802 -1.12447,-3.04271 -1.12448,0.59531 -4.7625,2.18281 -5.82084,1.98437 -1.05833,-0.19843 -2.57969,0.52917 -3.70416,-1.19062 -1.12448,-1.71979 -3.63803,-4.23333 -5.42396,-6.15156 -1.78594,-1.91823 -15.015107,-20.6375 -15.015107,-20.6375 z"
       style="fill:#ffccaa;stroke:#000000;stroke-width:0.264583px;stroke-linecap:butt;stroke-linejoin:miter;stroke-opacity:0" />
  </g>
  <g
     inkscape:label="5"
     id="layer9"
     inkscape:groupmode="layer">
    <path
       id="path904"
       d="m 260.98869,298.07902 c 0,0 2.24506,-0.98221 2.15152,-3.22728 -0.0936,-2.24507 -1.63703,-8.79316 -3.08696,-10.38341 -1.44994,-1.59025 -10.71083,-8.2319 -14.78001,-11.69305 -4.06918,-3.46115 -18.89595,-19.64432 -21.23456,-21.84261 -2.33861,-2.19829 -16.74444,-18.00728 -18.56855,-20.53298 -1.82412,-2.52569 -11.55273,-14.82677 -14.49938,-17.63311 -2.94664,-2.80633 -18.14759,-15.52835 -21.70228,-17.44601 -3.55468,-1.91766 -33.20649,-12.89036 -35.58774,-14.14713 -2.38125,-1.25678 -19.64531,-11.2448 -24.20938,-15.08125 -4.56406,-3.83646 -20.505205,-17.52865 -23.084893,-20.90209 -2.579687,-3.37344 -11.57552,-9.98802 -14.089062,-10.45104 -2.513542,-0.46302 -11.707812,-5.22552 -14.022917,-6.54844 -2.315104,-1.32291 -7.077604,-3.96875 -11.906249,-9.525 -4.828646,-5.55625 -12.131003,-14.27014 -15.405055,-15.57976 -3.274052,-1.30962 -10.196332,-3.367602 -12.254307,-3.367602 -2.057976,0 -4.583673,0.748352 -5.238483,1.309622 -0.65481,0.56127 0.841899,0 1.590254,0.65481 0.748354,0.65481 0,3.08696 0,3.08696 0,0 -0.280633,-2.33861 -1.309621,-2.71278 -1.028988,-0.37418 -1.590254,-0.37418 -0.935443,0.28063 0.65481,0.65481 1.122532,2.80633 1.122532,2.80633 0,0 -1.777343,-0.56127 -2.432153,0 -0.65481,0.56127 -1.8708867,2.15152 -0.561266,4.02241 1.309621,1.87088 4.490128,5.89329 7.015825,8.51253 2.525697,2.61924 3.835318,13.00266 2.993419,14.59292 -0.841899,1.59025 -6.922281,9.82215 -7.670636,13.00266 -0.748354,3.18051 -3.3675958,12.72203 -1.496709,15.99608 1.870887,3.27405 1.403165,11.31886 1.028988,11.69304 -0.374178,0.37418 -1.309621,0.56127 -1.309621,0.56127 0,0 -1.8708867,-0.74836 -2.2450639,-1.87089 -0.3741775,-1.12253 -1.8708867,0.56127 -2.0579754,3.18051 -0.1870888,2.61924 0.8418988,11.13177 2.8998743,12.62848 2.057975,1.49671 -2.0579755,4.2095 -1.7773423,6.7352 0.280633,2.52569 2.8998743,7.20291 5.4255713,8.2319 2.525697,1.02898 4.864305,2.05797 4.209495,4.8643 -0.65481,2.80633 -8.0448128,17.96051 -2.432153,32.92761 5.61266,14.96709 12.909118,25.63114 21.14102,31.80508 8.231902,6.17392 19.831399,8.60608 23.94735,14.59291 4.115951,5.98683 5.425569,6.73518 10.289876,6.17392 4.864306,-0.56126 4.115951,-3.55468 9.54152,2.05798 5.425572,5.61266 4.864306,11.97367 11.973676,9.35443 7.10937,-2.61925 7.857719,-4.6772 8.793169,-3.55468 0.93544,1.12252 8.60608,8.98025 12.90912,10.66406 4.30304,1.68378 15.71544,3.1805 17.21215,2.99341 1.49671,-0.18708 3.55469,-1.30963 3.92887,-2.61924 0.37417,-1.30963 0.56126,-2.99342 2.99341,-2.24507 2.43216,0.74835 8.41899,-1.30961 9.9157,-0.18709 1.49671,1.12253 5.98684,2.99342 7.29646,0.93544 1.30962,-2.05796 6.17393,-5.98683 9.9157,-5.61266 3.74177,0.37417 11.22532,3.18053 16.65089,2.99342 5.42557,-0.18709 16.83798,-3.55468 21.14102,-3.74177 4.30304,-0.18709 8.41899,-0.37417 12.90912,0.93544 4.49013,1.30963 6.5481,0.74837 8.60608,1.87089 2.05797,1.12255 7.29646,3.1805 9.16734,3.1805 1.87089,0 6.71156,0.53743 7.83604,0.008 1.12448,-0.52917 1.91823,-2.97657 3.50573,-3.24115 1.5875,-0.26458 3.90261,-0.33073 4.56406,-0.79375 0.66146,-0.46302 1.25956,-2.1005 1.25956,-2.1005 z"
       style="fill:#c87137;stroke:#000000;stroke-width:0.264583px;stroke-linecap:butt;stroke-linejoin:miter;stroke-opacity:0" />
  </g>
  <g
     inkscape:label="6"
     id="layer10"
     inkscape:groupmode="layer">
    <path
       id="path907"
       d="m 125.28021,242.49062 c -5.15938,-4.49791 -11.24479,-11.1125 -16.66875,-15.21354 -5.42396,-4.10104 -14.81667,-8.86354 -19.579169,-12.83229 -4.7625,-3.96875 -8.202084,-7.80521 -7.805209,-10.05417 0.396875,-2.24896 1.058334,-3.57187 -1.455208,-4.89479 -2.513542,-1.32292 -15.478125,-9.65729 -16.801041,-11.24479 -1.322917,-1.5875 -3.836459,-2.77813 -1.058334,-5.02708 2.778125,-2.24896 5.159375,-3.175 5.688542,-5.42396 0.529166,-2.24896 3.571875,-4.49792 9.657291,-4.63021 6.085417,-0.13229 17.197917,1.05833 23.812498,0.92604 6.61459,-0.13229 10.45104,0.26458 11.50938,-0.13229 1.05833,-0.39688 3.57187,0.26458 3.57187,0.26458 0,0 -10.31875,5.15938 -12.56771,5.68854 -2.24895,0.52917 -8.863538,0.26459 -7.672913,6.87917 1.190625,6.61458 -0.396875,9.12813 3.042708,11.50938 3.439585,2.38125 9.128125,2.51354 9.525005,6.08541 0.39687,3.57188 2.77812,14.68438 5.15937,19.71146 2.38125,5.02708 11.64167,18.38854 11.64167,18.38854 z"
       style="fill:#e9c6af;stroke:#000000;stroke-width:0.264583px;stroke-linecap:butt;stroke-linejoin:miter;stroke-opacity:0" />
  </g>
  <g
     inkscape:label="3"
     id="layer7"
     inkscape:groupmode="layer">
    <path
       id="path896"
       d="m 259.75468,292.1 c -1.91822,-0.79375 -6.01927,-1.7198 -7.67291,-1.45521 -1.65365,0.26458 -4.29948,2.3151 -4.29948,5.02708 0,2.71198 0.79375,6.01927 2.97656,6.87917 2.18281,0.85989 7.2099,0.92604 8.59896,-0.19844 1.38906,-1.12448 3.04271,-4.10104 2.91042,-5.42396 -0.1323,-1.32291 -0.39688,-3.37344 -0.99219,-3.9026 -0.59531,-0.52917 -1.52136,-0.92604 -1.52136,-0.92604 z"
       style="fill:#ffccaa;stroke:#000000;stroke-width:0.264583px;stroke-linecap:butt;stroke-linejoin:miter;stroke-opacity:0" />
    <path
       id="path898"
       d="m 260.01927,305.92448 c -1.78594,-0.46303 -4.36563,-0.99219 -5.6224,-1.38907 -1.25677,-0.39687 -2.91041,-0.66146 -2.91041,-0.66146 0,0 -0.59532,2.31511 -0.0661,3.04271 0.52917,0.72761 9.12812,10.05417 9.59115,11.90625 0.46302,1.85209 0.66145,2.71198 0.66145,2.71198 0,0 3.57188,-5.4901 3.43959,-7.0776 -0.1323,-1.5875 -2.31511,-7.40834 -3.10886,-7.80521 -0.79375,-0.39688 -1.98437,-0.7276 -1.98437,-0.7276 z"
       style="fill:#ffeeaa;stroke:#000000;stroke-width:0.264583px;stroke-linecap:butt;stroke-linejoin:miter;stroke-opacity:0" />
  </g>
  <g
     inkscape:label="7"
     id="layer11"
     inkscape:groupmode="layer">
    <path
       id="path894"
       d="m 258.60331,295.13236 c -0.56127,-0.74835 -0.74836,-1.54347 -1.73057,-0.98221 -0.98222,0.56128 -1.87089,2.0112 -1.63703,2.8531 0.23386,0.84191 0.79513,1.07577 1.40317,0.74835 0.60804,-0.32739 2.05797,-1.59025 2.05797,-1.96442 0,-0.37418 -0.0935,-0.65482 -0.0935,-0.65482 z"
       style="fill:#483e37;stroke:#000000;stroke-width:0.264583px;stroke-linecap:butt;stroke-linejoin:miter;stroke-opacity:0" />
  </g>
</svg>
