<?xml version="1.0" encoding="UTF-8" standalone="no"?>
<svg
   xmlns:dc="http://purl.org/dc/elements/1.1/"
   xmlns:cc="http://creativecommons.org/ns#"
   xmlns:rdf="http://www.w3.org/1999/02/22-rdf-syntax-ns#"
   xmlns:svg="http://www.w3.org/2000/svg"
   xmlns="http://www.w3.org/2000/svg"
   xmlns:sodipodi="http://sodipodi.sourceforge.net/DTD/sodipodi-0.dtd"
   xmlns:inkscape="http://www.inkscape.org/namespaces/inkscape"
   width="500mm"
   height="500mm"
   viewBox="0 0 500 500"
   version="1.1"
   id="svg8"
   inkscape:version="1.0 (4035a4fb49, 2020-05-01)"
   sodipodi:docname="cpu.svg">
  <defs
     id="defs2" />
  <sodipodi:namedview
     id="base"
     pagecolor="#ffffff"
     bordercolor="#666666"
     borderopacity="1.0"
     inkscape:pageopacity="0.0"
     inkscape:pageshadow="2"
     inkscape:zoom="0.7"
     inkscape:cx="924.77636"
     inkscape:cy="887.57428"
     inkscape:document-units="mm"
     inkscape:current-layer="layer3"
     inkscape:document-rotation="0"
     showgrid="false"
     inkscape:showpageshadow="false"
     inkscape:snap-global="false"
     inkscape:window-width="1673"
     inkscape:window-height="1040"
     inkscape:window-x="26"
     inkscape:window-y="0"
     inkscape:window-maximized="0" />
  <metadata
     id="metadata5">
    <rdf:RDF>
      <cc:Work
         rdf:about="">
        <dc:format>image/svg+xml</dc:format>
        <dc:type
           rdf:resource="http://purl.org/dc/dcmitype/StillImage" />
        <dc:title />
      </cc:Work>
    </rdf:RDF>
  </metadata>
  <g
     inkscape:groupmode="layer"
     id="layer2"
     inkscape:label="1"
     style="display:inline">
    <path
       style="fill:#5fd35f;stroke:#000000;stroke-width:0.264583px;stroke-linecap:butt;stroke-linejoin:miter;stroke-opacity:0"
       d="m 79.469492,246.25149 c 0,0 0.0945,-4.8192 1.417413,-6.04762 1.322917,-1.22843 5.953125,-4.06325 8.598958,-4.25223 2.645833,-0.18899 7.559522,0.75595 10.205355,2.83482 2.645832,2.07886 5.480652,4.53571 6.614582,6.61458 1.13393,2.07887 1.79539,4.63021 1.98438,5.95312 0.18899,1.32292 0.75595,2.55134 1.5119,2.45685 0.75595,-0.0945 6.99256,-0.18899 8.69345,0 1.7009,0.18899 10.58334,1.79539 13.32367,3.02381 2.74032,1.22842 16.91443,10.01636 18.80431,11.43379 1.88988,1.41739 6.70908,6.14211 9.35491,9.1659 2.64583,3.02382 8.40997,10.20538 10.01637,10.96132 1.6064,0.75594 10.67783,6.2366 13.60714,7.9375 2.92932,1.7009 10.58334,7.37052 12.00075,9.16593 1.41741,1.79539 2.36235,3.1183 3.1183,3.68525 0.75595,0.56698 3.02381,1.03944 4.53572,2.36236 1.5119,1.32292 3.0238,2.45684 3.30729,3.1183 0.28348,0.66146 0.66145,1.13393 0.66145,1.13393 0,0 2.07887,-1.70088 3.49628,-2.45685 1.41742,-0.75594 3.87426,-1.5119 5.85863,-1.32291 1.98438,0.18899 5.38616,1.41742 6.52009,2.74034 1.13393,1.32292 2.45685,2.92931 2.83482,3.77976 0.37798,0.85045 0.85045,1.51191 0.85045,1.51191 0,0 2.26786,-2.17337 4.25223,-2.83483 1.98438,-0.66146 5.57515,-1.03944 6.89807,-0.0945 1.32292,0.94496 4.06324,3.4018 4.53571,4.72472 0.47247,1.32292 0.56697,1.88987 0.56697,2.92931 0,1.03944 -0.66146,2.92931 -0.66146,2.92931 0,0 0.37798,-2.36234 -0.56697,-3.87425 -0.94494,-1.5119 -3.40178,-3.49628 -4.81919,-3.77975 -1.41741,-0.2835 -5.29167,-0.37799 -6.99256,0.18896 -1.70089,0.56698 -3.02381,1.60642 -3.02381,1.60642 0,0 0.47247,1.03942 0.37798,1.88987 -0.0945,0.85045 -0.56697,2.17336 -0.56697,2.17336 0,0 -0.0945,-3.02381 -0.56696,-4.06323 -0.47247,-1.03944 -1.88988,-3.02382 -3.11831,-3.77976 -1.22842,-0.75597 -5.19717,-2.55135 -7.27604,-2.64583 -2.07887,-0.0945 -4.53571,0 -5.76414,0.75594 -1.22842,0.75594 -2.07886,1.4174 -2.07886,1.4174 0,0 0.47247,1.32292 0.37797,2.45687 -0.0945,1.13392 -1.32291,2.55132 -1.32291,2.55132 0,0 0.47247,-2.45684 0.18898,-3.30729 -0.28348,-0.85045 -2.26785,-3.68528 -4.81919,-4.72469 -2.55134,-1.03944 -6.70908,-2.07889 -9.16593,-1.7009 -2.45684,0.37798 -7.843,2.36236 -9.73288,3.77976 -1.88988,1.41742 -6.14212,3.49628 -7.18155,4.44121 -1.03943,0.94496 -2.64583,2.07889 -3.1183,2.36236 -0.47247,0.28348 -8.97694,4.25223 -10.67783,4.91368 -1.70089,0.66146 -10.77232,3.77976 -10.77232,3.77976 0,0 7.65402,-7.18153 9.35491,-9.07142 1.70089,-1.88987 5.85863,-5.95313 6.61458,-7.18154 0.75596,-1.22843 1.13393,-4.6302 0.0945,-5.76413 -1.03944,-1.13395 -4.34673,-3.59079 -6.52009,-4.15774 -2.17337,-0.56698 -7.46503,-1.03944 -10.39435,-0.0945 -2.92931,0.94496 -11.15029,5.19718 -12.28422,5.85864 -1.13393,0.66146 -4.44122,3.68528 -4.44122,3.68528 0,0 -3.59078,1.22841 -5.00819,1.70087 -1.41741,0.47247 -3.68526,0.75597 -5.38616,1.51191 -1.70089,0.75597 -1.5119,0.37798 -1.32292,0 0.18899,-0.37798 -1.92572,-6.86403 -2.86117,-7.53218 -0.93544,-0.66818 -3.4745,-7.34992 -4.54358,-8.0181 -1.06908,-0.66817 -5.34539,-4.14268 -5.07812,-5.07812 0.26727,-0.93543 4.14268,-1.47 6.5481,-1.60361 2.40543,-0.13364 12.82894,0.66818 12.82894,0.66818 0,0 -7.48355,-7.48356 -10.28988,-7.88445 -2.80633,-0.40093 -6.28083,-2.67272 -4.81085,-5.47905 1.46998,-2.80633 8.15172,-5.87991 9.35443,-5.7463 1.20272,0.13364 1.03567,-0.0334 1.03567,-0.0334 0,0 -2.50565,-0.33409 -3.17382,-0.7684 -0.66818,-0.43431 -8.8371,-6.14958 -8.8371,-6.90552 0,-0.75597 -0.66145,-4.15774 -0.66145,-4.15774 0,0 0,2.17337 -0.66146,2.83482 -0.66146,0.66146 -1.88988,0.75594 -1.88988,0.75594 0,0 1.41741,-2.9293 1.03943,-4.72469 -0.37798,-1.79539 -0.66146,-2.26786 -0.66146,-2.26786 l -0.85045,2.45686 c 0,0 0.0945,-5.10269 -0.66145,-6.99257 -0.75596,-1.88989 -3.77976,-11.62277 -8.12649,-13.41816 -4.346726,-1.79539 -11.528274,-4.81919 -15.119049,-3.68527 -3.590774,1.13393 -5.575149,5.19718 -5.575149,5.19718 z"
       id="path848" />
    <path
       style="fill:#165016;stroke:#000000;stroke-width:0.264583px;stroke-linecap:butt;stroke-linejoin:miter;stroke-opacity:0"
       d="m 131.91369,273.74926 c 0,0 8.31547,3.68525 9.87463,6.28386 1.55915,2.59858 3.26004,5.90587 4.53571,7.03979 1.27567,1.13393 7.22879,1.98438 7.22879,1.98438 0,0 -4.44121,-1.84264 -6.09486,-5.52792 -1.65365,-3.68524 -7.89025,-7.32326 -8.17374,-7.98472 -0.28348,-0.66146 -0.42522,-2.17337 -2.26785,-2.36236 -1.84264,-0.18899 -5.10268,0.56697 -5.10268,0.56697 z"
       id="path850" />
    <path
       style="fill:#165016;stroke:#000000;stroke-width:0.264583px;stroke-linecap:butt;stroke-linejoin:miter;stroke-opacity:0"
       d="m 205.28832,325.20125 c 0,0 -2.92932,3.4018 -4.77195,5.24444 -1.84264,1.84264 -5.29167,6.70906 -6.89807,7.79576 -1.6064,1.08667 -5.14992,3.02379 -7.37053,3.9215 -2.22061,0.89767 -6.99256,4.29948 -6.99256,4.29948 0,0 6.52009,-3.49629 9.11867,-4.58296 2.59859,-1.0867 6.56734,-3.21281 7.65402,-4.91371 1.08668,-1.70087 3.07106,-4.34671 4.06324,-5.52788 0.99219,-1.18118 2.74033,-2.78758 3.40179,-3.54354 0.66146,-0.75594 1.79539,-2.69309 1.79539,-2.69309 z"
       id="path862" />
    <path
       style="fill:#165016;stroke:#000000;stroke-width:0.264583px;stroke-linecap:butt;stroke-linejoin:miter;stroke-opacity:0"
       d="m 224.17231,330.01106 c 0,0 -6.41446,8.81988 -8.01808,10.4235 -1.60362,1.60361 -7.01583,6.94901 -8.21854,7.81764 -1.20271,0.86863 -2.67269,2.80633 -2.67269,2.80633 0,0 4.94448,-3.74179 6.88218,-5.67949 1.93771,-1.93771 6.68174,-7.08264 7.34992,-8.0849 0.66817,-1.00227 4.67721,-7.28308 4.67721,-7.28308 z"
       id="path864" />
    <path
       style="fill:#5fd35f;stroke:#000000;stroke-width:0.264583px;stroke-linecap:butt;stroke-linejoin:miter;stroke-opacity:0"
       d="m 250.97619,325.01228 c 0,0 -0.42522,-2.26787 1.41741,-4.016 1.84263,-1.74816 4.77195,-3.44903 6.61458,-3.54354 1.84264,-0.0945 4.63021,0.33073 6.04762,1.55916 1.41742,1.22841 3.96875,3.82702 4.58295,4.5357 0.61423,0.70872 1.32292,1.32292 1.32292,1.32292 0,0 0.42524,-1.93712 1.32291,-3.1183 0.89771,-1.18118 3.87427,-4.20497 5.33892,-4.96094 1.46466,-0.75594 4.34674,-1.46465 5.38618,-1.03941 1.03942,0.42521 4.15772,1.37014 5.76413,2.50407 1.60639,1.13395 2.64584,1.65364 2.64584,1.65364 0,0 -0.2835,-1.88986 1.13392,-4.3467 1.4174,-2.45685 6.37834,-8.50448 9.44941,-9.68566 3.07105,-1.18118 9.59115,-5.48066 11.38653,-6.56733 1.79538,-1.08667 11.29204,-5.4334 13.18191,-6.47284 1.88989,-1.03945 13.26179,-9.53135 16.73627,-11.53586 3.47451,-2.00454 21.78249,-10.42353 25.79153,-11.62624 4.00905,-1.20272 9.62171,-2.53905 13.22983,-1.87087 3.60815,0.66815 5.19105,0.32279 6.32497,0.46453 1.13393,0.14173 5.00817,0.14173 6.00035,0.23622 0.99219,0.0945 2.26788,0.66145 2.26788,0.66145 0,0 4.01598,-2.69306 4.67744,-3.1183 0.66145,-0.42521 0.80322,-1.65364 3.2128,-3.16554 2.40959,-1.51191 7.27605,-3.1183 8.59896,-3.40179 1.32292,-0.28348 6.73624,-1.96646 9.94347,-1.56556 3.20725,0.40091 4.30972,1.03567 5.27857,1.57021 0.96888,0.53454 4.07588,2.40543 4.577,3.27405 0.50112,0.86863 1.70384,2.73952 1.80406,4.24291 0.10022,1.50339 -0.4677,3.84198 -0.4677,3.84198 0,0 0.13361,-3.30745 -0.60138,-4.67719 -0.73498,-1.36978 -3.27403,-3.74179 -4.00904,-4.10928 -0.73499,-0.3675 -4.07585,-1.77066 -5.77969,-1.70384 -1.70384,0.0668 -4.54359,0.70158 -6.21403,1.40316 -1.67042,0.70158 -4.17608,2.6727 -5.27857,3.50791 -1.10247,0.83521 -1.06908,1.23614 -2.47224,1.53681 -1.40317,0.30067 -5.71013,-0.32859 -6.89131,0.23836 -1.18118,0.56698 -2.31511,1.51191 -2.45685,2.74034 -0.14173,1.22841 -1.08667,3.73251 -1.08667,3.73251 0,0 -0.56697,-3.40178 -0.2835,-4.01601 0.2835,-0.6142 0.66146,-1.27566 0.66146,-1.27566 0,0 -1.22841,0.8032 -1.37014,1.55916 -0.14177,0.75594 -1.18118,3.1183 -2.40962,3.68525 -1.2284,0.56698 -4.48847,3.96875 -5.14993,4.8192 -0.66145,0.85045 -3.68524,2.64584 -3.59076,4.25223 0.0945,1.60642 0.75594,3.59079 -0.47247,4.15774 -1.22843,0.56697 -8.31548,3.30729 -9.73288,3.59079 -1.41743,0.28348 -5.00256,1.17171 -6.57275,2.27418 -1.57023,1.10249 -6.64835,5.84652 -6.64835,5.84652 0,0 4.00905,-2.17157 7.78423,-3.30745 3.77518,-1.13591 7.88445,-2.33863 8.81988,-1.33636 0.93547,1.00227 2.53908,2.20499 1.67045,2.97339 -0.86863,0.7684 0.61616,0.49503 1.0414,1.81795 0.42521,1.32292 -1.37017,3.26004 0.42521,4.5357 1.79539,1.27566 4.15774,3.02382 4.25225,4.8192 0.0945,1.79538 -0.66145,2.64583 0.23622,3.7325 0.89771,1.0867 1.06075,3.53624 0.65985,6.14212 -0.40092,2.60588 -0.46773,7.14947 -0.20045,8.4858 0.26726,1.33635 0.27294,2.21567 0.27294,2.21567 0,0 -1.06307,-2.48047 -1.86626,-2.19699 -0.8032,0.28347 -1.72453,1.34654 -2.78757,0.54334 -1.06307,-0.80322 -6.66184,-6.40199 -9.0242,-8.48084 -2.36233,-2.07889 -12.33146,-11.43379 -13.89062,-12.23698 -1.55914,-0.8032 -5.10268,-2.12612 -6.99254,-1.98438 -1.8899,0.14174 -6.5201,0.23622 -7.89027,1.46466 -1.37015,1.22843 -2.78758,1.74812 -2.78758,3.77975 0,2.03163 0.66146,4.06326 2.07889,6.33111 1.4174,2.26785 4.8192,6.75632 5.33889,8.64622 0.51972,1.88986 -0.66146,2.78757 0.4725,4.06323 1.13392,1.27566 2.36233,1.84264 2.64583,2.97656 0.28347,1.13393 0,3.35455 0,3.35455 0,0 -0.80322,-3.21281 -2.7876,-4.205 -1.98437,-0.99219 -2.78757,-1.03944 -2.78757,-1.03944 0,0 3.30729,2.5986 3.44903,3.92152 0.14176,1.32292 -0.0472,2.17337 -0.0472,2.17337 0,0 -1.18118,-2.45687 -2.50409,-2.97657 -1.32292,-0.51972 -3.02382,0.61421 -5.85865,-1.37017 -2.83482,-1.98437 -6.99254,-6.14211 -8.83517,-8.40996 -1.84264,-2.26788 -6.7091,-7.79577 -7.51229,-8.97694 -0.8032,-1.18118 -2.17337,-3.1183 -3.87424,-3.73251 -1.7009,-0.61423 -7.46504,-1.79541 -9.54392,-1.41742 -2.07886,0.37798 -6.04761,1.08669 -7.55952,2.9293 -1.5119,1.84264 -2.22062,3.49629 -1.60639,5.14993 0.61421,1.65365 2.97656,4.91371 3.73251,5.9059 0.75596,0.99219 2.64583,4.25222 3.54353,5.85862 0.89768,1.60639 3.16556,4.67746 4.01598,5.38617 0.85045,0.70869 3.07107,2.78757 3.87427,3.68525 0.80319,0.89771 2.45684,2.64583 2.59858,3.54354 0.14174,0.89768 0.14174,1.27566 0.14174,1.27566 0,0 -2.2206,-3.44903 -3.59077,-3.82701 -1.37017,-0.37796 -3.63802,0.0945 -5.33892,-0.14174 -1.70088,-0.23622 -5.43341,-2.17337 -7.18153,-3.54351 -1.74816,-1.37017 -5.43341,-4.01601 -7.46504,-5.66965 -2.03163,-1.65365 -6.80357,-5.33892 -8.59896,-6.47285 -1.79538,-1.13392 -4.34673,-2.40958 -6.94531,-2.92931 -2.59858,-0.51972 -3.92149,-0.80319 -6.18937,-0.23624 -2.26785,0.56697 -3.54351,1.08669 -4.25222,2.12611 -0.70872,1.03944 -1.93712,4.205 -1.93712,4.205 0,0 -0.23625,1.03944 -0.0945,1.4174 0.14176,0.37798 0.51972,1.13392 0.51972,1.13392 0,0 -1.00127,-1.2537 -1.33536,-2.05552 -0.33408,-0.80182 -0.93546,-1.82078 -1.60361,-2.43882 -0.66818,-0.61807 -3.90882,-3.29076 -5.47903,-3.62485 -1.57021,-0.33409 -5.31199,-0.56795 -6.48129,-0.3675 -1.1693,0.20044 -2.27179,0.46773 -3.40769,1.33635 -1.13589,0.86863 -1.63702,1.50339 -1.9377,2.17157 -0.30068,0.66815 -0.59125,1.48251 -0.59125,1.48251 z"
       id="path866" />
    <path
       style="fill:#217821;stroke:#000000;stroke-width:0.264583px;stroke-linecap:butt;stroke-linejoin:miter;stroke-opacity:0"
       d="m 343.67485,293.12052 c 0,0 2.26785,-3.30729 5.76414,-4.72469 3.49628,-1.4174 7.55951,-2.17337 9.26041,-3.40177 1.7009,-1.22844 3.49629,-2.74035 5.19716,-3.11833 1.7009,-0.37796 3.68528,-0.56695 3.68528,-0.56695 0,0 -2.83483,0.85045 -3.77976,1.7009 -0.94493,0.85042 -1.79538,1.88987 -1.79538,1.88987 0,0 3.07104,-0.99219 3.59076,-1.27567 0.51972,-0.28347 0.61421,-0.66145 1.18118,-0.8977 0.56698,-0.23622 1.32292,0 1.32292,0 0,0 -1.08667,0.56697 -1.60639,1.13392 -0.51972,0.56698 -1.55917,1.55917 -3.35455,2.40962 -1.79538,0.85045 -2.92931,3.07104 -4.8192,3.82701 -1.88987,0.75594 -3.30729,0.89768 -3.30729,0.89768 0,0 2.07888,-0.66146 2.78757,-1.37015 0.70871,-0.70871 1.84264,-1.74815 1.84264,-1.74815 0,0 -4.06324,0.51972 -6.99257,1.65364 -2.92931,1.13393 -5.00817,1.37018 -6.37834,2.03163 -1.37017,0.66146 -2.59858,1.55914 -2.59858,1.55914 z"
       id="path868" />
    <path
       style="fill:#217821;stroke:#000000;stroke-width:0.264583px;stroke-linecap:butt;stroke-linejoin:miter;stroke-opacity:0"
       d="m 273.61718,330.74604 c 0,0 3.60813,5.27857 5.07813,6.48129 1.46997,1.20272 6.08036,6.08036 7.21627,7.01582 1.13588,0.93544 4.7521,3.70756 4.7521,3.70756 0,0 -3.37815,-3.23644 -4.34671,-4.22863 -0.96858,-0.99218 -6.37836,-6.30745 -6.99256,-6.73269 -0.61421,-0.42521 -2.66947,-2.66946 -3.04745,-3.23641 -0.37796,-0.56698 -2.65978,-3.00694 -2.65978,-3.00694 z"
       id="path874" />
    <path
       style="fill:#22241c;stroke:#000000;stroke-width:0.264583px;stroke-linecap:butt;stroke-linejoin:miter;stroke-opacity:0"
       d="M 83.15476,213.93452 18.142857,109.61309 96.00595,152.70238 49.136905,30.994048 100.54167,158.56101 20.78869,112.25893 Z"
       id="path911" />
    <path
       style="fill:#22241c;stroke:#000000;stroke-width:0.264583px;stroke-linecap:butt;stroke-linejoin:miter;stroke-opacity:0"
       d="M 391.81711,230.38633 457.56544,146.4637 394.48983,158.22356 443.13287,48.643053 390.2135,162.49987 452.22003,149.13639 Z"
       id="path913" />
  </g>
  <g
     inkscape:groupmode="layer"
     id="layer3"
     inkscape:label="2">
    <path
       style="fill:#225500;stroke:#000000;stroke-width:0.264583px;stroke-linecap:butt;stroke-linejoin:miter;stroke-opacity:0"
       d="M 325.86182,302.92059 149.8194,242.72787 171.93101,116.7673 333.79932,175.44811 Z"
       id="path893" />
    <path
       style="fill:#338000;stroke:#000000;stroke-width:0.264583px;stroke-linecap:butt;stroke-linejoin:miter;stroke-opacity:0"
       d="M 320.94811,294.88858 156.245,238.00317 175.89976,122.53144 328.79113,177.71596 Z"
       id="path895" />
    <path
       style="fill:#2d5016;stroke:#000000;stroke-width:0.264583px;stroke-linecap:butt;stroke-linejoin:miter;stroke-opacity:0"
       d="m 171.74293,116.91276 -0.68508,0.42522 -3.37816,18.49721 3.48446,-18.44996 z"
       id="path903" />
    <path
       style="fill:#338000;stroke:#000000;stroke-width:0.264583px;stroke-linecap:butt;stroke-linejoin:miter;stroke-opacity:0.00401605"
       d="m 149.60412,242.81436 -0.80181,0.3675 0.66817,-3.34087 -0.96885,3.60814 176.35803,59.97231 0.95582,-0.4381 z"
       id="path905"
       sodipodi:nodetypes="ccccccc" />
    <path
       style="fill:#445500;stroke:#000000;stroke-width:0.264583px;stroke-linecap:butt;stroke-linejoin:miter;stroke-opacity:0"
       d="m 171.76655,117.04269 -0.49609,0.38979 -9.07127,54.27984 z"
       id="path907" />
    <path
       style="fill:#445016;stroke:#000000;stroke-width:0.264583px;stroke-linecap:butt;stroke-linejoin:miter;stroke-opacity:0"
       d="m 149.64314,242.67252 -0.68509,0.33073 13.04904,-70.1968 z"
       id="path909" />
  </g>
</svg>
