<svg height="64" viewBox="0 0 64 64" width="64" xmlns="http://www.w3.org/2000/svg"><path d="m54 16.56c-7-12.5-20.83-14.17-31.92-11s-15.44 9.44-16.19 13.83-.09 19.34 0 27.61.62 10.2 1 11.41 9.18.79 9.93 0-3.18-21.62-.56-30.81 6.81-11.1 15.74-11.17 12.89 5.5 14.76 12.19a17.26 17.26 0 0 1 -4.62 17 14 14 0 0 1 -9.44 3.63 12.17 12.17 0 0 1 0-2.63 21.61 21.61 0 0 0 6.19-1c2.31-.94 5.75-3.94 5.68-12.37s-5-13.5-12.25-13.57-11.27 3-12.52 7.13.09 28.67.09 29.92a2.72 2.72 0 0 0 1.83 2.66 70.21 70.21 0 0 0 19.33-.5c7.34-1.5 11.84-4.91 14.59-10.75s5.36-19.08-1.64-31.58zm-4.33 33.5c-4.35 4.25-7.78 5.69-14.47 5.94s-12.81.56-13.13-.19-.75-28.38 0-29.94 7.13-5.94 13.38-3.81 6.12 11.12 5.12 15.06-3.25 5.06-5.43 5.63-7.44.37-7.57 1-.43 7.18.32 7.37a17.45 17.45 0 0 0 10.43-1.19c5.57-2.25 9.82-6.56 10.44-13.68s-1.62-14.44-6.87-19.38-16.25-3.94-21.69-.44-7.38 11.07-7.44 14.94 1.06 24.44.63 24.69-4.82.25-5.19-.06-.69-26.88-.63-31.13-.06-7.69 4.5-11.75 14.82-9.19 26.25-5.37 15.5 13.43 17.07 21.68-1.39 16.38-5.75 20.63zm-35.33-35.88c-2.41 2.09-2.6 3.14-2.54 3.3a2.1 2.1 0 0 0 1 .62 24.85 24.85 0 0 1 2-2.54c1.58-1.63 4-2.33 4.21-2.58a1 1 0 0 0 -.13-1.25c-.41-.25-2.12.37-4.54 2.45zm14.17 9.92c-.46-.29-3.75.54-4.08 1.33a13.91 13.91 0 0 0 .08 4.71c.25.25.92.46 1.25.17s-.12-3.46.08-4 2.63-.79 2.8-.92.36-1-.13-1.29zm4.33 17.75c0-.21-.92-1.94-1.12-1.87a2.43 2.43 0 0 0 -.79.45 8.9 8.9 0 0 0 1.16 1.71c.13.09.71-.08.75-.29zm3.38-.37c.21-.17-1.88-2.84-2.08-3s-1 .31-1 .5a21 21 0 0 0 2.08 2.79c.12.16.78-.13 1-.29zm2-1.34a19.5 19.5 0 0 0 -2.63-3.62c-.25-.09-.69.36-.66.54a33.12 33.12 0 0 0 2.58 3.54c.25.21.63-.25.71-.46zm1.25-2.25a23 23 0 0 0 -3.08-4c-.34-.12-.67.71-.67.71a50.48 50.48 0 0 0 3.5 3.75 1.24 1.24 0 0 0 .25-.46zm-.42-2.16c.25.16.54-.3.59-.5a29.54 29.54 0 0 0 -2.5-3.13c-.17-.17-.59.71-.59.71s2.25 2.75 2.5 2.92zm.95-2.63a.7.7 0 0 0 .21-.5 24.25 24.25 0 0 0 -3.09-3.46c-.25 0-.33.54-.33.54.21.13 3.21 3.42 3.21 3.42zm-.38-4.25c.17 0 0-.33 0-.71a6.58 6.58 0 0 0 -2.12-1.87c-.33-.09-.17.75-.17.75s2.1 1.79 2.26 1.83z" fill="#1d1d1b"/></svg>