<svg height="64" viewBox="0 0 64 64" width="64" xmlns="http://www.w3.org/2000/svg"><path d="m56 17.62a27.62 27.62 0 0 0 -7.94-9.7c-3.56-2.59-10.42-5.11-15.17-4.71a38.57 38.57 0 0 0 -13.3 3.91c-2.79 1.56-6.31 5.47-8 7.39a21.9 21.9 0 0 0 -4.89 10.06c-.68 4.15.61 6.66 2.35 7.5 7.51 3.64 10.42-2.59 12.3-5.75s3.59-7.5 6.71-10.5 9-4.59 11.81-3.31a13.82 13.82 0 0 1 6.63 8c1.16 3.51.36 8.46-.44 11.09a8.78 8.78 0 0 1 -5.67 5.59 6.56 6.56 0 0 1 -5.47-.12c-.52-.36-.72-.8-.4-2.19a11.24 11.24 0 0 0 -1-8.87c-2.31-3.67-7.3-2.75-9.82-.83s-4.11 5-4.91 9.06 1.64 8.3 1.64 8.3a14 14 0 0 0 -1 2.6 37.57 37.57 0 0 0 -1.32 8.34c-.12 2.84-.43 6.31 1.12 7s3.36.32 5.35-1.56 5.55-7.78 5.55-7.78a33.79 33.79 0 0 0 4.79.24c2.48-.08 4.79-.16 10.58-3.64s9.14-11.26 11-17.52.66-10-.5-12.6zm-1.2 7.75c-.12-.24-1-1.76-1.35-1.48a1.78 1.78 0 0 0 .12 1.92 9.42 9.42 0 0 1 1.11 1.55c0 .2-.2 1.84-.4 1.72s-1.35-2.2-1.71-1.76a1 1 0 0 0 0 1.36 6.23 6.23 0 0 1 1.27 1.88c0 .28-.63 2.55-.83 2.43s-1-2.83-1.44-2.75a.87.87 0 0 0 -.52 1.11 22.26 22.26 0 0 1 1.36 3c0 .44-.52 1.28-.64 1.12s-1.28-3-1.56-3.08-.68.52-.56 1.08 1.35 2.83 1.35 3.07-.6 1.2-.72 1.12a32 32 0 0 0 -1.56-2.83c-.19 0-.75.32-.71.72s1.67 3 1.55 3.27-.91 1.48-1 1.28-1.44-3.52-1.68-3.52a.83.83 0 0 0 -.6.88c0 .48 1.68 3.36 1.6 3.48s-.6.67-.8.59-1.4-2.91-1.72-2.87-.92.72-.76.88a21 21 0 0 1 1.56 3 2 2 0 0 1 -1 .68c-.16-.09-1.58-3.22-1.93-3.22s-.88.32-.68.8a31.68 31.68 0 0 1 1.59 3c-.08.2-1 .88-1.15.72a42.51 42.51 0 0 0 -2.12-3.79c-.2 0-1 .59-.8.87a28.53 28.53 0 0 1 1.8 3.4c-.12.12-1.16.6-1.32.48s-1.8-4.08-2-4.08-.91.32-.83.64 1.87 4.08 1.87 4.08-1 .43-1.16.35-2-5-2.23-5-1 .24-.92.44 2.2 4.75 2.2 4.87-.92.52-1 .36-2.4-5.35-2.6-5.39-.67.4-.67.4 2.51 5 2.35 5.07-1.12.24-1.28 0-2.31-5.71-2.55-5.75-1 0-.92.24 2.36 5.71 2.2 5.71a3.27 3.27 0 0 1 -1.08 0c-.16-.12-2.32-6-2.6-6.19s-1 .2-.84.32 2.68 5.83 2.4 5.83a7.33 7.33 0 0 1 -1.92-.72c-.16-.16-1.83-5.07-2.27-5.19s-1.08-.08-.8.4a40.94 40.94 0 0 1 2 4.55c-.12.08-.56.44-.72.4s-2-3.07-2.28-3.11-.72.4-.56.68 2 3.35 2 3.59-.24.68-.4.48-1.56-3.07-2-2.83a1.13 1.13 0 0 0 -.32 1.23c.12.32 1.72 2.52 1.6 3s-.28.64-.48.52-1.52-2.8-1.83-2.64-.76.88-.48 1.2 1.87 2.48 1.75 2.83-.36.72-.44.6-1.11-2.15-1.31-2.11-.64.8-.52 1.08 1.31 1.87 1.15 2.15-.39.68-.51.6-1.12-1.44-1.36-1.44-.72.6-.48.92 1.32 1.68 1.24 1.88-.6.92-.76.68-.84-1.48-1-1.44a.92.92 0 0 0 -.32 1.16c.28.48.8 1 .64 1.39s-1.12.76-1.2.6a21.7 21.7 0 0 1 .2-8.06c.88-4.31 2.44-7.55 2.28-7.87a11.36 11.36 0 0 1 -1.92-7.14c.44-3.79 2.36-7.23 4.27-8.59s5-2.79 8.19 0 .56 9.51.56 9.87a3.46 3.46 0 0 0 2.63 2.83c2 .28 6.63 0 8.54-2.12a14.85 14.85 0 0 0 4.32-10.38c-.08-4.87-.88-8.74-3.28-11.49a13.25 13.25 0 0 0 -8.1-4.57c-2.6-.36-8 .08-10.54 2.23s-4 3.43-5.39 6.11-1.92 5.67-3.95 7.26-3.44 2.52-4.71 1.84c-.85-.45-2.6-3-2-6.39s4.59-8.37 6.59-10.58 9.22-5.5 12.37-6.06a25.85 25.85 0 0 1 13 1.35c4.15 1.8 6.74 3.32 8.38 5.83a30.15 30.15 0 0 1 3.59 6.87c.44 1.64.56 2 .44 2s-.52-.75-.88-.51a1 1 0 0 0 -.23 1.39c.43.56 1.31.84 1.35 1.32a8.54 8.54 0 0 1 -.18 2.39zm-40.08-9.47c-.76-.08-2.35 3.8-2.59 5.67s.4 2.66.91 2.56.24-1.52.24-2.72a10.13 10.13 0 0 1 1.48-4.23c.6-.88.72-1.18-.04-1.28zm10.9 11.82a8 8 0 0 0 -2.79 3.71c-.36 1.12-.08 2.68.51 2.68 1 0 .56-2.36 1.52-4a3.54 3.54 0 0 1 3-1.68c.24 0 .47-.28.43-.84s-1.35-.75-2.67.13zm20.32-18.84a18.72 18.72 0 0 0 -5.35-2.56c-.59-.1-.92.64-.24 1s4 1.44 5.75 3.23 2.79 4 3.35 4 1-.36.28-1.4a14.62 14.62 0 0 0 -3.79-4.27z" fill="#1d1d1b"/></svg>