<svg height="64" viewBox="0 0 64 64" width="64" xmlns="http://www.w3.org/2000/svg"><path d="m55 25.5c-3-1.87-7.23.2-7.43.2s-2.95-1.83-4.95-2.83-6.91-1.16-7.11-1.24 2.29-6.87 2.49-7.31 2.11.68 2.11.68a6.44 6.44 0 0 0 3.76 4c2.19.79 6-.56 7-3.2s.52-6.35-3.19-7.62-7.31 1.19-7.31 1.19a40.77 40.77 0 0 0 -5.17-1.51c-1 0-2 1.79-3.15 3.67s-5.27 11.74-5.27 11.74a45.94 45.94 0 0 0 -7.3 1.47c-1.32-1.63-4.72-1.83-6.23-1.59s-6.63 1.83-7.07 6 2.36 5.66 2.36 5.66a12.35 12.35 0 0 0 -.54 3.31 18.79 18.79 0 0 0 1.81 7.58c1.16 2.16 5.67 5.55 12.06 8.35a24.68 24.68 0 0 0 15.45 1.55c3.83-.75 6.07-1 11.5-5.71s6.23-11.89 6.23-11.89 2.71-3.75 2.79-5.43.16-5.19-2.84-7.07zm1.15 5.59c-.24.56-1.19 2.56-2 3a5.2 5.2 0 0 1 -1.12.55s-5.47-5.94-6.23-5.9a.6.6 0 0 0 -.44 1c.28.12 6.23 5.23 6.23 5.23s.08 2-.12 1.92-5.31-5.11-5.71-5.07-.64.76-.44.88 5.79 5 5.79 5-.24 1-.48 1-5-4.59-5.19-4.55-.64.83-.48 1 5.43 4.24 5.39 4.51-.8 1.68-.88 1.52-4.63-4.19-5-4.07-.51.88-.32 1 4.92 3.87 4.92 4-.76 1.16-.92 1.08-3.84-3.52-4-3.52-.75.6-.67.8 3.87 3.24 3.83 3.4-.6 1.27-.88 1.07-1.65-2.11-2.13-1.94-.83.56-.71.72 2.41 2.22 2.19 2.38-1.16 1-1.32.8-2.39-2.71-2.67-2.63-.92.51-.68.75a29.57 29.57 0 0 1 2.32 2.64c-.12 0-.92 1.08-1.36.88s-1.72-2.32-2.12-2.2-.72.44-.64.6 2.08 2.2 1.76 2.48-.84.79-1 .51a18.83 18.83 0 0 0 -2.43-2.75c-.28 0-.6.56-.6.56s2.15 2.39 1.84 2.67a1.83 1.83 0 0 1 -1.28.28c-.16-.08-2-2.51-2.36-2.51s-.88.4-.8.68 2.28 2 2 2.19-1.2.68-1.48.24a10.58 10.58 0 0 0 -2.43-2.29c-.28 0-.56.6-.56.6s1.56 1.67 1.36 1.75-1.48.2-1.56 0-1.52-1.79-1.92-1.79-.88.55-.64.71 1.52 1.12.92 1.32-8.62-.26-13.13-3.59-7.07-6.67-7.87-8.5a10.2 10.2 0 0 1 -.32-5 4.87 4.87 0 0 1 -2.35-3.5c-.2-2.31 1.68-4.75 2.55-5.55s4.4-1.79 6.19-.76a9.53 9.53 0 0 0 3.12 1.36 31.32 31.32 0 0 1 3.31-.88c2.19-.48 5.39-.76 5.55-1.19s3.47-8.26 4.82-10.98 2.31-4 2.71-3.84 4 1.68 4.67 1.4 3.2-1.83 5.79-1.36 3.2 1.48 3.6 2.44a9.43 9.43 0 0 1 .55 2s-1.51-2.12-1.79-1.72-.4.16-.28.4a24.86 24.86 0 0 1 1.6 2.79c0 .24-.32 1.16-.44 1s-1.72-2.83-2.16-2.83-.76.24-.64.52 2.28 2.91 2.12 3-1 .48-1.08.4-1.92-2.44-2.2-2.32-1 .08-.79.4 2.19 2.28 2 2.4-.88.28-1 .12a15.52 15.52 0 0 0 -1.91-2.32c-.24 0-.88.2-.8.32a9.16 9.16 0 0 1 .92 1.92 3 3 0 0 1 -1.87-1.52 12.26 12.26 0 0 1 -.88-2.83c-.2-.28-4.67-2.16-5.23-1.92s-3.79 10.66-3.47 11.22a1.88 1.88 0 0 0 1.4.68c.16 0 4.79-.8 7.94.48s5.15 3.71 5.91 3.51 1.2-.84 2.16-1 3.47-.88 5.23.6a3.77 3.77 0 0 1 1.06 4.15zm-42.9-4.83a4.59 4.59 0 0 0 -3 2 .64.64 0 0 0 .4.8c.32.08 1.12-.68 2.12-1.12a4 4 0 0 1 2.67.16c.8.16 1.16-.16 1.08-.72s-1.72-1.32-3.27-1.12zm2 5.11a6.41 6.41 0 0 0 -2.95 3.11c-.48 1.16.2 2.16.68 2.16s.36-1.08.64-2 1.83-1.79 2.31-2.35a.6.6 0 0 0 -.65-.92zm9.35 7.19a5.41 5.41 0 0 0 4.67-1.24c1.15-1.08 1.63-4.15.4-4.83s-3.16-1.85-5.31-1.12c-3 1-3.32 3.51-2.8 4.47a4.38 4.38 0 0 0 3.07 2.72zm.47-4.47a4.23 4.23 0 0 1 3.16 0 1.58 1.58 0 0 1 .28 2.63c-1 1-3.48.72-3.87.64a1.84 1.84 0 0 1 .46-3.27zm12.38 4.39a5.83 5.83 0 0 0 4.87-1.8c1.08-1.44.84-4.23-.76-5.07a7.28 7.28 0 0 0 -6.59.28 3.14 3.14 0 0 0 -1.11 4c.59.63 2.3 2.39 3.62 2.59zm1-5.47c.66-.18 2.91.28 3.15 1.47a2.3 2.3 0 0 1 -2 2.48c-1.2.32-2.68.32-3-1.16a2.2 2.2 0 0 1 1.92-2.8zm10.54-5.15a.72.72 0 0 0 -.92.68c0 .24 4.59 4.11 4.87 4.35s.88.52.84.08-4.16-4.97-4.72-5.11zm2.55-.8a.81.81 0 0 0 -.32 1.12c.08.24.4.36 1.12.48s1.2 1.43 1.4 1.79a.72.72 0 0 0 1.16.12c.47-.4-.08-1.39-.76-2.27s-1.91-1.53-2.53-1.24zm-10.03 12.38c-.92 0-3.71 2.55-5.39 3.23a19.08 19.08 0 0 1 -7.9.76c-2.8-.32-5.67-1.86-6.31-1.8-1.36.12-1.52 2.36-.68 3.59s3.51 2.52 6.43 2.68 5.35-.36 9.42-1.64 5.91-3.67 6-4.35-.65-2.47-1.57-2.47zm-1.12 4a24.81 24.81 0 0 1 -8.3 2.91 17.93 17.93 0 0 1 -6.67-.08c-.68-.16-1.91-.64-1.43-1.24.35-.43 4.67.56 7.34.44a19.33 19.33 0 0 0 7.67-2.12 25.62 25.62 0 0 0 2.67-1.84s.56.84-1.28 1.92zm2.61-30.44c.39 0 .6-.57 1.47-1.08a3.67 3.67 0 0 1 2.09-.27c.09 0 .27-.24.15-.81s-1.23-.72-2.21-.36a3.93 3.93 0 0 0 -2.12 1.52.81.81 0 0 0 .62 1z" fill="#1d1d1b"/></svg>