<?xml version="1.0" encoding="UTF-8" standalone="no"?>
<svg
   xmlns:dc="http://purl.org/dc/elements/1.1/"
   xmlns:cc="http://creativecommons.org/ns#"
   xmlns:rdf="http://www.w3.org/1999/02/22-rdf-syntax-ns#"
   xmlns:svg="http://www.w3.org/2000/svg"
   xmlns="http://www.w3.org/2000/svg"
   xmlns:sodipodi="http://sodipodi.sourceforge.net/DTD/sodipodi-0.dtd"
   xmlns:inkscape="http://www.inkscape.org/namespaces/inkscape"
   width="500mm"
   height="500mm"
   viewBox="0 0 500 500"
   version="1.1"
   id="svg8"
   inkscape:version="1.0 (4035a4fb49, 2020-05-01)"
   sodipodi:docname="TechDebtLips.svg">
  <defs
     id="defs2" />
  <sodipodi:namedview
     id="base"
     pagecolor="#000000"
     bordercolor="#666666"
     borderopacity="1.0"
     inkscape:pageopacity="1"
     inkscape:pageshadow="2"
     inkscape:zoom="0.49497475"
     inkscape:cx="655.74846"
     inkscape:cy="1081.3625"
     inkscape:document-units="mm"
     inkscape:current-layer="layer1"
     inkscape:document-rotation="0"
     showgrid="false"
     inkscape:showpageshadow="false"
     inkscape:snap-global="false"
     inkscape:window-width="1866"
     inkscape:window-height="937"
     inkscape:window-x="18"
     inkscape:window-y="28"
     inkscape:window-maximized="0" />
  <metadata
     id="metadata5">
    <rdf:RDF>
      <cc:Work
         rdf:about="">
        <dc:format>image/svg+xml</dc:format>
        <dc:type
           rdf:resource="http://purl.org/dc/dcmitype/StillImage" />
        <dc:title />
      </cc:Work>
    </rdf:RDF>
  </metadata>
  <g
     inkscape:label="Layer 1"
     inkscape:groupmode="layer"
     id="layer1">
    <path
       style="fill:#ff0000;stroke:#000000;stroke-width:0.264583px;stroke-linecap:butt;stroke-linejoin:miter;stroke-opacity:1"
       d="m 51.127996,220.65891 c 13.83083,-14.19896 8.751124,-10.40881 25.741997,-28.65117 6.803573,-6.42559 27.970247,-22.67857 33.639887,-26.08035 5.66964,-3.40179 22.67857,-10.58334 29.48214,-13.98512 6.80357,-3.40179 15.49702,-7.18155 15.49702,-7.18155 0,0 -3.40178,7.55952 -2.64583,15.49702 0.75595,7.9375 2.64583,15.875 2.64583,15.875 0,0 -15.87499,3.40179 -22.67857,6.99256 -5.91396,3.12125 -9.07142,4.91369 -9.07142,4.91369 0,0 6.63331,17.03055 13.98511,25.5134 2.45685,2.83482 3.77977,4.15773 3.77977,4.15773 0,0 -11.71727,1.51191 -17.00893,4.53572 -5.29167,3.02381 -9.07143,3.40178 -9.07143,3.40178 0,0 -4.9137,-7.18154 -7.18155,-12.85118 -2.10566,-5.26414 -2.26786,-5.85864 -3.40178,-9.07144 -0.8055,-2.28225 -1.7009,-5.66964 -1.7009,-5.66964 0,0 -13.163922,14.34668 -16.063989,19.27679 -3.779762,6.42559 -11.845333,22.11161 -11.845333,22.11161 0,0 -2.567552,0.12023 -7.463878,-2.47028 -8.094373,-4.57737 -5.266968,-2.95133 -10.718597,-7.46619 -2.75654,-2.98188 -5.919547,-8.84838 -5.919547,-8.84838 z"
       id="path855"
       sodipodi:nodetypes="ccsscscscscscsscscccc" />
    <path
       style="fill:#ff0000;stroke:#000000;stroke-width:0.264583px;stroke-linecap:butt;stroke-linejoin:miter;stroke-opacity:1"
       d="m 158.89083,143.62679 c 0,0 -3.40179,7.55952 -3.40179,12.85119 0,5.29167 1.51191,13.98512 3.02381,19.27679 1.51191,5.29166 5.66965,17.76488 9.82739,24.94642 4.15773,7.18155 8.69345,13.22917 8.69345,13.22917 0,0 13.22916,-1.5119 20.03274,-4.15774 6.80357,-2.64583 13.98511,1.13393 17.3869,1.13393 3.40179,0 9.4494,-2.64583 13.60714,-2.64583 1.28164,0 8.78179,1.4901 11.99735,3.30217 1.90384,1.07288 2.67416,1.02883 3.82944,-0.27555 2.05127,-2.31602 5.33988,-3.21561 5.33988,-3.21561 0,0 -6.67684,-6.03573 -9.16315,-10.51848 -1.47255,-2.65499 -3.17758,-11.43378 -3.17758,-11.43378 0,0 -15.62951,0.21868 -23.94498,2.86446 -8.31548,2.64584 -23.8125,6.4256 -27.59227,6.04762 -3.77976,-0.37797 -4.53571,-0.37797 -4.53571,-0.37797 l -3.77976,-8.69346 -0.75595,-3.40178 c 0,0 11.57076,2.12475 15.75009,2.7505 5.20332,0.77907 12.19991,-0.96648 12.19991,-0.96648 0,0 -2.64583,-6.80358 -3.02381,-9.82739 -0.37798,-3.0238 -0.37798,-6.04761 -0.37798,-6.04761 0,0 -6.61476,1.51512 -15.30794,2.83639 -5.55522,0.84433 -12.64206,-0.46267 -12.64206,-0.46267 0,0 -2.26786,-7.55953 -1.88988,-9.82738 0.37797,-2.26786 1.13393,-4.9137 1.13393,-4.9137 0,0 7.475,0.41597 15.03452,1.97374 7.4409,1.53332 22.38512,8.98757 28.81071,10.49948 6.4256,1.5119 21.47053,1.22842 21.47053,1.22842 0,0 3.53009,-8.01515 5.12954,-10.53609 2.67436,-4.21513 7.55953,-7.89025 7.55953,-7.89025 0,0 -25.24473,1.36878 -31.29235,-0.5211 -6.04762,-1.88989 -22.49908,-7.91458 -29.70355,-9.11729 -6.71071,-1.12028 -10.20536,-2.26786 -18.14286,-1.13393 -7.9375,1.13393 -12.09524,3.02381 -12.09524,3.02381 z"
       id="path857"
       sodipodi:nodetypes="cssscssssscscsscccscscscscsscscsssc" />
    <path
       style="fill:#ff0000;stroke:#000000;stroke-width:0.264583px;stroke-linecap:butt;stroke-linejoin:miter;stroke-opacity:1"
       d="m 319.38709,138.17419 c 0,0 -21.64884,-3.20724 -31.80508,-2.13816 -10.15625,1.06908 -17.90706,5.07812 -24.85607,9.6217 -6.949,4.54358 -13.89801,7.21628 -18.70886,15.7689 -4.81085,8.55263 -5.87993,13.89802 -5.34539,21.64883 0.53454,7.75082 2.93996,14.43255 6.68174,18.17433 2.3457,2.3457 5.73475,6.43359 7.45845,8.22681 1.29391,1.3461 5.45416,1.29069 6.59104,1.30596 3.41243,0.0459 3.32302,0.0889 9.47022,-0.71287 6.14722,-0.80181 17.37254,-2.6727 22.18338,-2.40543 4.81084,0.26727 11.75985,-2.13816 18.17433,-1.33635 6.41445,0.80181 7.32142,0.56696 10.24796,0.22141 1.67869,-0.19821 5.41023,0.11072 5.41023,0.11072 0,0 2.73782,-12.24527 3.58522,-17.70465 0.66229,-4.26678 1.60361,-8.28535 1.60361,-8.28535 0,0 -25.65789,0.80181 -31.5378,3.20723 -5.87994,2.40543 -20.31249,6.68174 -24.58881,5.61266 -4.27631,-1.06908 -12.2944,-1.87088 -12.82893,-9.08716 -0.53454,-7.21628 3.20722,-16.83798 11.75985,-21.9161 8.55263,-5.07812 17.10526,-5.87993 20.04523,-4.81085 2.93995,1.06907 6.41445,3.20723 11.22532,4.81085 4.81084,1.60361 26.99422,3.4745 26.99422,3.4745 0,0 -1.14525,-6.86883 -1.33635,-10.69078 -0.26728,-5.34539 -1.87088,-11.49259 -1.87088,-11.49259 z"
       id="path859"
       sodipodi:nodetypes="cssssssssssscscsssssscscc" />
    <path
       style="fill:#ff0000;stroke:#000000;stroke-width:0.264583px;stroke-linecap:butt;stroke-linejoin:miter;stroke-opacity:1"
       d="m 330.87967,140.57961 c 0,0 3.74179,20.84702 2.13817,36.34866 -1.60364,15.50163 -5.61268,29.93418 -5.61268,29.93418 0,0 15.7689,-0.26727 20.57977,1.33635 4.81084,1.60362 5.34537,1.60362 5.34537,1.60362 0,0 3.20726,-15.23437 3.47451,-18.17433 0.26728,-2.93997 0,-4.81085 0,-4.81085 0,0 12.2944,5.34539 17.10526,9.35443 4.81084,4.00904 6.41448,4.81085 6.41448,4.81085 0,0 12.02711,10.95805 19.24338,14.69982 7.2163,3.74178 7.2163,3.74178 7.2163,3.74178 0,0 -1.87089,5.07812 -3.20725,6.68174 -1.33633,1.60362 -2.40541,1.87088 -2.40541,1.87088 0,0 17.37252,4.27632 23.78697,7.75082 6.41448,3.4745 9.88899,1.60362 9.88899,1.60362 0,0 5.34537,-10.69078 5.61266,-13.89802 0.26725,-3.20723 0,-6.1472 0,-6.1472 0,0 -13.09622,-10.15624 -18.44159,-16.30344 -5.34541,-6.1472 -8.55263,-9.6217 -8.55263,-9.6217 0,0 0.53453,8.01809 -0.26729,10.69078 -0.80179,2.6727 -1.60361,3.4745 -1.60361,3.4745 0,0 -13.36347,-8.01808 -18.70887,-13.89801 -5.34538,-5.87993 -22.45064,-17.63979 -26.72694,-19.51068 -4.27633,-1.87088 -9.35445,-4.27631 -9.35445,-4.27631 0,0 0.80182,-13.89801 0.26728,-17.10525 -0.53453,-3.20723 -1.06907,-2.67269 -1.06907,-2.67269 0,0 -16.57072,-5.61266 -25.12335,-7.48355 z"
       id="path861" />
    <path
       style="fill:#ffffff;stroke:#000000;stroke-width:0.264583px;stroke-linecap:butt;stroke-linejoin:miter;stroke-opacity:1"
       d="m 131.29857,223.37977 c 0,0 -1.70089,7.37053 0.94494,11.33928 2.64583,3.96875 8.88244,5.29167 11.52827,5.10268 2.64584,-0.18899 22.48959,-4.34673 24.94643,-4.7247 2.45685,-0.37798 4.91369,-1.32292 5.10268,-2.64584 0.18899,-1.32291 1.5119,-13.41815 0.37798,-14.55208 -1.13393,-1.13393 -4.34673,-1.70089 -6.4256,-1.5119 -2.07887,0.18898 -13.98512,1.88988 -16.25298,2.07887 -2.26785,0.18898 -8.69345,1.70089 -10.77232,1.88988 -2.07887,0.18898 -7.18154,0.18898 -8.50446,1.70089 -1.32292,1.5119 -0.94494,1.32292 -0.94494,1.32292 z"
       id="path863" />
    <path
       style="fill:#ffffff;stroke:#000000;stroke-width:0.264583px;stroke-linecap:butt;stroke-linejoin:miter;stroke-opacity:1"
       d="m 177.86787,217.28596 c -1.06907,1.87089 -0.93544,2.13816 -1.06907,3.34087 -0.13364,1.20271 -0.26727,10.15624 0.4009,13.22984 0.66817,3.0736 1.06908,5.07813 3.20723,6.68174 2.13816,1.60362 9.35444,3.87541 13.09621,4.00904 3.74177,0.13364 21.64883,0.40091 26.59332,-0.13363 4.94449,-0.53454 14.29892,-1.60362 16.70434,-2.00452 2.40543,-0.40091 3.87541,-0.80181 4.14268,-1.60362 0.26727,-0.80181 1.06908,-2.67269 1.06908,-4.00904 0,-1.33635 -0.53454,-16.16981 -0.80181,-18.57523 -0.26727,-2.40543 -0.4009,-3.87541 -2.00452,-4.94449 -1.60362,-1.06908 -7.48355,-2.40542 -9.88897,-2.27179 -2.40543,0.13363 -10.69079,2.27179 -12.82894,2.40543 -2.13816,0.13363 -10.69078,-2.00453 -12.96257,-2.00453 -2.27179,0 -8.41899,2.13816 -11.09169,2.6727 -2.67269,0.53454 -10.02261,1.46998 -11.22532,1.73725 -1.20271,0.26727 -3.34087,1.46998 -3.34087,1.46998 z"
       id="path865" />
    <path
       style="fill:#ffffff;stroke:#000000;stroke-width:0.264583px;stroke-linecap:butt;stroke-linejoin:miter;stroke-opacity:1"
       d="m 297.89158,257.01965 c -0.75597,1.13393 -0.56698,5.66964 0,6.80357 0.56695,1.13393 6.0476,5.95313 7.84299,6.80356 1.79541,0.85045 2.83482,1.7009 4.15774,1.7009 1.32292,0 1.88989,-0.56695 1.98437,-1.32292 0.0945,-0.75594 0.189,-8.78794 -0.28347,-9.92187 -0.47247,-1.13393 -1.51191,-3.1183 -3.40178,-3.68527 -1.88989,-0.56696 -6.23662,-1.03943 -7.37055,-0.94494 -1.13392,0.0945 -2.9293,0.56697 -2.9293,0.56697 z"
       id="path867" />
    <path
       style="fill:#ffffff;stroke:#000000;stroke-width:0.264583px;stroke-linecap:butt;stroke-linejoin:miter;stroke-opacity:1"
       d="m 339.29866,254.57006 c -6.41446,-1.46998 -13.09619,-2.53906 -15.36798,-1.73725 -2.27179,0.80181 -8.55263,2.27179 -9.62171,5.34539 -1.06907,3.0736 -0.53454,11.49259 0.13364,13.22984 0.66816,1.73725 3.34087,4.67722 8.01807,4.94448 4.67722,0.26728 12.56167,1.47 15.368,2.40543 2.80633,0.93544 6.5481,1.46997 7.75081,1.33636 1.20272,-0.13364 2.53908,-0.66818 2.2718,-2.00454 -0.26726,-1.33633 -2.00451,-12.29439 -2.00451,-14.96708 0,-2.6727 -0.13365,-3.0736 -1.33636,-4.94449 -1.20272,-1.87089 -5.21176,-3.60814 -5.21176,-3.60814 z"
       id="path869" />
    <path
       style="fill:#ffffff;stroke:#000000;stroke-width:0.264583px;stroke-linecap:butt;stroke-linejoin:miter;stroke-opacity:1"
       d="m 266.46773,212.87602 c -6.01358,0 -12.69531,-0.13364 -14.9671,-1.06908 -2.27179,-0.93544 -3.47451,-2.00452 -5.21176,-0.13364 -1.73725,1.87089 -2.40542,3.0736 -2.27179,5.34539 0.13363,2.27179 0.4009,16.03618 0.80181,18.97614 0.4009,2.93997 0.53454,4.67722 3.0736,5.47903 2.53906,0.8018 13.09619,1.46998 18.97614,2.67269 5.87994,1.20271 14.96708,2.93997 19.6443,2.93997 4.67723,0 15.7689,0 18.70887,-3.20724 2.93998,-3.20723 3.74177,-5.74629 3.74177,-9.88897 0,-4.14268 0.13364,-18.04069 -1.46997,-20.44612 -1.60362,-2.40543 -3.07362,-4.14268 -5.07812,-4.14268 -2.00454,0 -7.75081,1.60362 -11.09168,1.33635 -3.3409,-0.26727 -11.62624,0.93544 -14.03168,1.20271 -2.4054,0.26727 -10.82439,0.93545 -10.82439,0.93545 z"
       id="path873" />
    <path
       style="fill:#ffffff;stroke:#000000;stroke-width:0.264583px;stroke-linecap:butt;stroke-linejoin:miter;stroke-opacity:1"
       d="m 333.15146,209.93605 c -6.1472,-0.13363 -17.77341,-1.06908 -19.91156,0.4009 -2.13818,1.46999 -2.53908,2.40543 -2.13818,5.87994 0.40092,3.4745 0.93546,11.09168 0.66818,12.82893 -0.26726,1.73725 0,4.94449 1.06907,5.47903 1.06908,0.53454 3.87541,3.34087 11.8935,3.60814 8.01809,0.26727 17.6398,1.46998 20.44613,-1.73725 2.80633,-3.20724 6.28083,-7.75082 6.01355,-13.89802 -0.26725,-6.1472 1.20272,-9.75534 -0.93543,-10.42351 -2.13815,-0.66818 -6.41448,-2.13816 -9.88899,-2.40543 -3.47448,-0.26727 -7.21627,0.26727 -7.21627,0.26727 z"
       id="path875" />
    <path
       style="fill:#ffffff;stroke:#000000;stroke-width:0.264583px;stroke-linecap:butt;stroke-linejoin:miter;stroke-opacity:1"
       d="m 369.99053,218.46608 c -5.29166,-2.64584 -12.66221,-7.55953 -14.74107,-6.04762 -2.07886,1.5119 -2.64583,8.69345 -1.88989,10.77232 0.75596,2.07887 4.15774,2.64583 5.66965,4.53571 1.51191,1.88988 6.04763,10.20536 10.01638,10.77232 3.96875,0.56697 6.42559,0 8.88243,0.37798 2.45685,0.37798 5.10268,1.32292 5.48066,-2.45685 0.37796,-3.77976 3.02379,-5.85863 1.51191,-8.12648 -1.51191,-2.26786 -8.69347,-7.55953 -11.15031,-8.50447 -2.45684,-0.94494 -3.77976,-1.32291 -3.77976,-1.32291 z"
       id="path877" />
    <path
       style="fill:#ffffff;stroke:#000000;stroke-width:0.264583px;stroke-linecap:butt;stroke-linejoin:miter;stroke-opacity:1"
       d="m 112.80926,230.30765 c -4.27736,2.13608 -11.36136,4.93896 -11.76318,6.80965 -0.40182,1.87069 0.39856,4.81104 2.13575,4.94552 1.73719,0.13449 8.01965,-3.20332 12.56407,-4.93836 4.54443,-1.73504 10.1567,-0.9305 11.49396,-2.80074 1.33726,-1.87023 1.74011,-5.87908 1.33979,-7.08199 -0.40031,-1.20291 -0.667,-2.40575 -2.67171,-2.00582 -2.00472,0.39993 -8.95497,2.9356 -10.42527,3.60306 -1.47031,0.66746 -2.67341,1.46868 -2.67341,1.46868 z"
       id="path879" />
    <path
       style="fill:#ffffff;stroke:#000000;stroke-width:0.264583px;stroke-linecap:butt;stroke-linejoin:miter;stroke-opacity:1"
       d="m 371.10954,262.6394 c -4.54033,-6.68395 -5.34083,-9.35704 -9.08183,-10.96247 -3.74099,-1.60544 -4.00891,-0.26923 -5.88071,1.60075 -1.87179,1.86997 -8.55432,3.47034 -7.75549,9.61793 0.79881,6.14758 1.06177,14.9676 3.46631,16.83966 2.4045,1.87206 6.14563,3.21024 13.09502,2.41181 6.94939,-0.79843 13.36387,-0.79531 14.43437,-3.73475 1.0705,-2.93944 -3.4693,-10.69248 -8.27767,-15.77293 z"
       id="path881" />
    <path
       style="fill:#ffffff;stroke:#000000;stroke-width:0.264583px;stroke-linecap:butt;stroke-linejoin:miter;stroke-opacity:1"
       d="m 386.61274,259.43971 c -3.47191,-5.34708 -4.80631,-9.35677 -8.54808,-9.3586 -3.74176,-0.002 -8.81885,-2.14245 -8.82067,1.59933 -0.003,3.74177 3.47059,8.01977 7.21042,12.03064 3.73983,4.01086 4.0045,9.35637 6.14172,11.2283 2.13725,1.87193 5.87878,2.40829 9.08704,0.2717 3.20828,-2.13659 0.80454,-5.61226 -1.06477,-8.82041 -1.86933,-3.20815 -4.00566,-6.95096 -4.00566,-6.95096 z"
       id="path883" />
    <path
       style="fill:#ff0000;stroke:#000000;stroke-width:0.264583px;stroke-linecap:butt;stroke-linejoin:miter;stroke-opacity:1"
       d="m 289.59858,249.77077 c -5.61266,-0.003 -14.69943,-0.80896 -19.24222,-2.41479 -4.54281,-1.60583 -18.4399,-3.48349 -23.51842,-2.68415 -5.07851,0.79934 -20.84871,3.46435 -29.66847,3.19279 -8.81976,-0.27156 -24.92301,-0.80663 -24.92301,-0.80663 0,0 3.54445,4.48072 3.94348,10.93132 0.27157,4.39027 -1.75353,7.51408 -3.08722,13.24982 -1.11891,4.81206 -3.00168,9.07481 -3.84697,14.92459 -0.72123,4.99117 -1.18565,9.56548 -3.36359,13.96691 -3.07014,6.20449 -4.15539,5.94048 -5.97407,8.52244 -4.18682,5.94397 -9.29112,7.01466 -9.29112,7.01466 0,0 24.31788,16.91052 35.27463,19.58855 10.95675,2.67804 30.46573,6.16204 39.55081,10.44276 9.08508,4.28075 18.69433,8.68723 18.69433,8.68723 0,0 1.31372,-14.33792 2.35425,-22.54421 1.02858,-8.11195 4.22019,-18.56591 4.22019,-18.56591 0,0 -35.94277,-2.06007 -44.22877,-0.72776 -8.286,1.33231 -15.76903,0.25959 -17.37252,-0.008 -1.60348,-0.26805 -3.74125,-1.07091 -3.74125,-1.07091 0,0 1.07572,-13.63022 1.87909,-16.83705 0.80337,-3.20685 0.8035,-3.47411 0.8035,-3.47411 0,0 16.30083,5.35332 26.18941,6.15995 9.88858,0.80661 7.48329,0.53819 7.48329,0.53819 0,0 -0.79465,-14.70022 1.34571,-19.24277 2.14037,-4.54253 3.74438,-5.34356 3.74438,-5.34356 0,0 -14.9667,-0.80909 -23.5201,0.79034 -8.55341,1.59946 -11.49324,1.33078 -11.49324,1.33078 0,0 1.60687,-6.68097 2.94426,-8.81849 1.33738,-2.13749 1.33764,-2.67203 1.33764,-2.67203 0,0 23.46563,-4.63914 37.53553,-3.11068 7.48826,0.81348 11.20833,1.56971 19.85002,4.68676 7.72423,2.78612 12.11188,18.58284 12.11188,18.58284 0,0 3.10248,-4.56645 5.81909,-9.93211 1.80243,-3.56002 4.98514,-8.10002 4.98514,-8.10002 -1.76322,-1.38693 1.56309,-14.67763 -6.79566,-16.25675 z"
       id="path885"
       sodipodi:nodetypes="cssscssssscsscscsccscscscscscsscscc" />
    <path
       style="fill:#ff0000;stroke:#000000;stroke-width:0.264583px;stroke-linecap:butt;stroke-linejoin:miter;stroke-opacity:1"
       d="m 298.04501,267.18532 c -3.02612,4.72323 -4.91813,9.06904 -7.94433,13.98127 -3.0262,4.9122 -13.80651,21.34893 -17.21437,33.82049 -3.40786,12.47154 -4.73649,24.18816 -5.11731,30.04662 -0.38084,5.85843 -0.57221,10.77203 -0.57221,10.77203 0,0 16.43893,6.24462 21.918,9.46007 5.4791,3.21548 22.67519,7.0036 28.34473,7.19537 5.66955,0.19174 15.68784,-3.77214 18.3356,-7.73959 2.64777,-3.96745 9.26907,-17.76037 6.81572,-24.94312 -2.45335,-7.18275 -5.47383,-13.98778 -9.63075,-15.69069 -4.1569,-1.70294 -5.66873,-1.89264 -5.66873,-1.89264 0,0 8.50493,-0.94081 11.3405,-2.45134 2.83556,-1.51051 7.56385,-8.87876 7.00047,-16.24957 -0.56337,-7.37082 -2.07235,-13.41917 -5.47248,-16.82261 -3.40011,-3.40344 -6.61154,-6.23982 -9.2569,-7.18605 -2.64538,-0.94623 -6.7089,-0.38124 -9.63784,-1.13861 -2.92897,-0.7574 -4.81751,-3.49864 -7.6521,-3.97248 -2.83458,-0.47384 -5.0084,0.47003 -7.55888,-1.3266 -2.55045,-1.79662 -8.02912,-5.86255 -8.02912,-5.86255 z"
       id="path889" />
    <path
       style="fill:#000000;stroke:#000000;stroke-width:0.264583px;stroke-linecap:butt;stroke-linejoin:miter;stroke-opacity:1"
       d="m 305.40487,289.11152 c -1.51291,2.07814 -6.61948,10.01316 -7.18762,12.46973 -0.56816,2.45655 -1.70357,5.47982 -1.70357,5.47982 0,0 7.36833,4.53929 13.60485,4.73133 6.23649,0.19203 13.79659,-0.93821 15.87645,-3.01607 2.07989,-2.07788 3.59492,-8.50273 3.02898,-10.58187 -0.56597,-2.07915 -2.83197,-5.86002 -6.80027,-6.80689 -3.96827,-0.94686 -8.12657,0.18503 -10.77214,-0.38322 -2.64554,-0.56824 -6.04668,-1.89283 -6.04668,-1.89283 z"
       id="path891" />
    <path
       style="fill:#000000;stroke:#000000;stroke-width:0.264583px;stroke-linecap:butt;stroke-linejoin:miter;stroke-opacity:1"
       d="m 291.40254,324.44549 c -0.9479,6.04716 -2.65264,13.98384 -2.46505,16.81874 0.18762,2.8349 -0.19137,4.9136 -0.19137,4.9136 0,0 12.28164,5.29765 17.0058,6.43388 4.72414,1.13622 13.03936,1.70725 14.74116,-0.18183 1.70182,-1.88904 4.5393,-7.3683 3.9738,-10.39241 -0.56549,-3.02408 -4.15332,-9.07343 -6.98674,-11.90963 -2.83345,-2.8362 -11.33837,-1.89542 -16.81837,-3.22098 -5.48002,-1.32559 -9.25923,-2.46137 -9.25923,-2.46137 z"
       id="path893"
       sodipodi:nodetypes="cscsssssc" />
    <path
       style="fill:#ff0000;stroke:#000000;stroke-width:0.264583px;stroke-linecap:butt;stroke-linejoin:miter;stroke-opacity:1"
       d="m 93.090262,250.01442 c -4.012434,6.94705 -3.880236,6.34388 -7.359936,17.03297 -3.479713,10.68909 -2.239116,22.931 -2.239116,22.931 0,0 22.70887,4.11517 28.85555,5.18727 6.14668,1.07206 39.29461,10.68534 42.88156,13.47424 13.45335,10.46019 19.42636,0.96785 25.68758,-5.84056 5.03001,-5.46959 4.96378,-15.39406 6.30221,-19.66973 1.33843,-4.27564 3.74945,-15.76708 5.62242,-20.04247 1.87297,-4.2754 1.07415,-10.42299 -2.93333,-13.63217 -4.00748,-3.20919 -11.75712,-5.61839 -12.82529,-7.4898 -1.06817,-1.8714 -1.06674,-4.81137 -3.73943,-4.81267 -2.6727,-0.001 -19.51302,4.80135 -25.39334,5.6003 -5.88031,0.79894 -12.02686,-0.5404 -15.23332,-2.14558 -3.20645,-1.60517 -5.34382,-3.20983 -9.8878,-2.41024 -4.54397,0.7996 -12.43089,5.13948 -15.23748,6.14043 -2.56724,0.91559 -14.500278,5.67701 -14.500278,5.67701 z"
       id="path895"
       sodipodi:nodetypes="cscssssssscssssc" />
    <path
       style="fill:#000000;stroke:#000000;stroke-width:0.264583px;stroke-linecap:butt;stroke-linejoin:miter;stroke-opacity:1"
       d="m 105.64925,258.62248 c -2.14024,4.27527 -3.76657,7.48515 -4.38902,11.83452 l -1.29503,9.04901 c 0,0 29.67236,2.93723 34.60056,4.1325 8.96753,2.17496 25.44831,9.92594 30.79449,8.32491 5.34617,-1.60102 5.13673,-10.02959 6.25466,-16.18181 0.62303,-3.42864 6.52541,-11.89982 4.65686,-16.71158 -1.86854,-4.81176 -7.47964,-8.02173 -16.3007,-5.6206 -8.82107,2.40113 -21.65118,4.80031 -26.19385,2.92721 -4.54267,-1.87309 -9.35313,-2.67725 -12.29322,-2.41141 -2.9401,0.26584 -15.83475,4.65725 -15.83475,4.65725 z"
       id="path897"
       sodipodi:nodetypes="cscsssssssc" />
    <path
       sodipodi:nodetypes="csscsscsscsscscsscsscssscscc"
       style="fill:#ff0000;stroke:#000000;stroke-width:0.264583px;stroke-linecap:butt;stroke-linejoin:miter;stroke-opacity:1"
       d="m 341.18209,284.3608 c 3.9669,3.78169 5.14879,8.97425 5.95152,12.49451 0.7542,3.30748 1.74885,8.83511 0.39291,12.6288 l -2.41469,6.7559 c 0,0 13.00785,0.11145 18.67784,-0.64171 5.67002,-0.75319 18.52306,-4.52671 22.6817,-6.41456 4.15867,-1.88786 7.56137,-3.77608 7.56137,-3.77608 0,0 6.7986,10.20868 6.60511,19.46899 -0.19349,9.26034 2.2402,13.68277 -1.50704,24.90626 -3.74724,11.2235 -6.95643,15.23098 -6.95643,15.23098 0,0 9.35572,-2.66814 15.50488,-6.67419 6.14915,-4.00603 15.50736,-11.75232 18.18161,-14.95825 2.67427,-3.20593 3.47699,-5.07643 3.47699,-5.07643 0,0 -0.26193,-10.95816 -1.86205,-18.17523 -1.6001,-7.21704 -12.2836,-22.18933 -12.2836,-22.18933 0,0 12.83102,-4.27009 18.17812,-7.74198 5.34707,-3.47191 12.0284,-2.66684 14.97007,-6.13992 2.94166,-3.47308 5.34889,-7.21368 5.34889,-7.21368 0,0 -4.54096,-5.3476 -9.08402,-6.41887 -4.54308,-1.0713 -10.68961,-2.41064 -12.82713,-3.74803 -2.13749,-1.33739 -4.54213,-2.94218 -4.54213,-2.94218 0,0 -12.83493,12.28816 -22.99157,13.08501 -10.15662,0.79687 -17.64081,2.12957 -20.84869,3.46437 -3.20789,1.33477 -6.68343,3.47123 -10.69287,4.27109 -4.00945,0.79986 -14.70047,1.32919 -17.6398,-0.008 -2.93931,-1.33778 -4.80928,-3.20958 -7.61593,-2.54278 -2.80667,0.66681 -8.9449,-0.541 -8.9449,-0.541 z"
       id="path899" />
  </g>
</svg>
